<svg width="9" height="8" viewBox="0 0 9 8" fill="none" xmlns="http://www.w3.org/2000/svg">
<path d="M7.87482 7.75495C7.72294 7.90377 7.51697 7.98736 7.30221 7.98736C7.08746 7.98736 6.88149 7.90377 6.72961 7.75495L4.0626 5.14097L1.39558 7.75495C1.24283 7.89955 1.03825 7.97956 0.825893 7.97775C0.613539 7.97594 0.410405 7.89246 0.260242 7.74528C0.110079 7.5981 0.0249014 7.39901 0.023056 7.19088C0.0212116 6.98275 0.102845 6.78223 0.250376 6.63252L2.91739 4.01854L0.250376 1.40456C0.173021 1.33134 0.111322 1.24375 0.0688763 1.1469C0.0264292 1.05005 0.00408649 0.945891 0.00315189 0.840491C0.00221729 0.735091 0.0227098 0.630564 0.0634317 0.533009C0.104155 0.435454 0.164294 0.346825 0.240338 0.272293C0.316382 0.197761 0.40681 0.138819 0.506344 0.0989062C0.605878 0.0589933 0.712525 0.038909 0.820064 0.0398249C0.927602 0.0407408 1.03388 0.0626387 1.13269 0.104241C1.2315 0.145843 1.32087 0.206317 1.39558 0.282132L4.0626 2.89611L6.72961 0.282132C6.80432 0.206317 6.89369 0.145843 6.9925 0.104241C7.09131 0.0626387 7.19759 0.0407408 7.30513 0.0398249C7.41267 0.038909 7.51931 0.0589933 7.61885 0.0989062C7.71838 0.138819 7.80881 0.197761 7.88485 0.272293C7.9609 0.346825 8.02104 0.435454 8.06176 0.533009C8.10248 0.630564 8.12297 0.735091 8.12204 0.840491C8.12111 0.945891 8.09876 1.05005 8.05632 1.1469C8.01387 1.24375 7.95217 1.33134 7.87482 1.40456L5.2078 4.01854L7.87482 6.63252C8.02665 6.78138 8.11195 6.98325 8.11195 7.19374C8.11195 7.40422 8.02665 7.60609 7.87482 7.75495Z" fill="black"/>
</svg>
