<svg width="19" height="19" viewBox="0 0 19 19" fill="none" xmlns="http://www.w3.org/2000/svg">
<g clip-path="url(#clip0_125_2501)">
<path d="M17.5363 11.9356C17.2749 11.9356 17.0631 12.1475 17.0631 12.4088V16.6103C17.0621 17.3941 16.4272 18.0292 15.6435 18.0299H2.36599C1.58226 18.0292 0.947321 17.3941 0.946397 16.6103V4.27926C0.947321 3.49571 1.58226 2.86059 2.36599 2.85967H6.56748C6.82885 2.85967 7.04068 2.64784 7.04068 2.38647C7.04068 2.12528 6.82885 1.91327 6.56748 1.91327H2.36599C1.05989 1.91475 0.00147875 2.97316 0 4.27926V16.6105C0.00147875 17.9166 1.05989 18.975 2.36599 18.9765H15.6435C16.9496 18.975 18.008 17.9166 18.0095 16.6105V12.4088C18.0095 12.1475 17.7976 11.9356 17.5363 11.9356Z" fill="#4C4C4C"/>
<path d="M17.8216 0.695728C16.99 -0.135881 15.6418 -0.135881 14.8102 0.695728L6.36802 9.13788C6.31016 9.19574 6.26839 9.26746 6.24658 9.3462L5.13641 13.3542C5.09075 13.5185 5.13715 13.6945 5.25767 13.8152C5.37837 13.9357 5.55434 13.9821 5.71866 13.9366L9.72662 12.8262C9.80536 12.8044 9.87708 12.7627 9.93494 12.7048L18.3769 4.26246C19.2072 3.4303 19.2072 2.08316 18.3769 1.251L17.8216 0.695728ZM7.39907 9.44546L14.3083 2.53603L16.5366 4.76431L9.62717 11.6737L7.39907 9.44546ZM6.95397 10.3386L8.7342 12.119L6.27172 12.8013L6.95397 10.3386ZM17.7078 3.59333L17.2059 4.09518L14.9775 1.86671L15.4795 1.36486C15.9414 0.902938 16.6904 0.902938 17.1523 1.36486L17.7078 1.92013C18.169 2.38261 18.169 3.13104 17.7078 3.59333Z" fill="#4C4C4C"/>
</g>
<defs>
<clipPath id="clip0_125_2501">
<rect width="19" height="19" fill="white"/>
</clipPath>
</defs>
</svg>
