<svg width="13" height="22" viewBox="0 0 13 22" fill="none" xmlns="http://www.w3.org/2000/svg">
<path d="M7.91773 21.957H4.54819C3.98537 21.957 3.52753 21.4783 3.52753 20.8899V12.9433H1.56167C0.99885 12.9433 0.541016 12.4645 0.541016 11.8762V8.47106C0.541016 7.88258 0.99885 7.40389 1.56167 7.40389H3.52753V5.69873C3.52753 4.00801 4.03529 2.56957 4.99575 1.53915C5.96054 0.504044 7.30884 -0.0429688 8.89488 -0.0429688L11.4647 -0.0386048C12.0265 -0.0375977 12.4835 0.441101 12.4835 1.02856V4.19012C12.4835 4.7786 12.0259 5.25729 11.4632 5.25729L9.73301 5.25797C9.20535 5.25797 9.07098 5.36858 9.04225 5.40248C8.99489 5.45871 8.93854 5.61766 8.93854 6.05658V7.40372H11.3332C11.5135 7.40372 11.6881 7.45021 11.8382 7.53783C12.162 7.72699 12.3633 8.08467 12.3633 8.47122L12.362 11.8763C12.362 12.4645 11.9042 12.9432 11.3414 12.9432H8.93854V20.8899C8.93854 21.4783 8.48055 21.957 7.91773 21.957ZM4.76105 20.6673H7.70486V12.3659C7.70486 11.973 8.01068 11.6534 8.38632 11.6534H11.1285L11.1296 8.69362H8.38616C8.01052 8.69362 7.70486 8.37404 7.70486 7.98111V6.05658C7.70486 5.5527 7.75383 4.97968 8.11759 4.54898C8.55712 4.02832 9.24981 3.96823 9.73269 3.96823L11.25 3.96756V1.25079L8.89392 1.24677C6.34501 1.24677 4.76105 2.95276 4.76105 5.69873V7.98111C4.76105 8.37387 4.4554 8.69362 4.07976 8.69362H1.77453V11.6534H4.07976C4.4554 11.6534 4.76105 11.973 4.76105 12.3659V20.6673ZM11.4622 1.25113H11.4624H11.4622Z" fill="white"/>
</svg>
