<svg width="32" height="32" viewBox="0 0 32 32" fill="none" xmlns="http://www.w3.org/2000/svg">
<g clip-path="url(#clip0_159_4051)">
<path d="M20.8052 24.0265C20.9492 24.2417 21.2405 24.2994 21.4555 24.1554C24.1902 22.326 25.8228 19.2721 25.8228 15.9863C25.8228 10.57 21.4163 6.16357 16 6.16357C10.5837 6.16357 6.17725 10.57 6.17725 15.9863C6.17725 21.4026 10.5837 25.8091 16 25.8091C17.2861 25.8091 18.5368 25.5641 19.7173 25.081C19.9569 24.983 20.0716 24.7092 19.9736 24.4696C19.8755 24.2299 19.6018 24.1152 19.3622 24.2133C19.0463 24.3425 18.7248 24.4524 18.3986 24.5438C19.116 23.7269 19.7145 22.5488 20.1383 21.1219C20.8299 21.4864 21.4727 21.9451 22.0547 22.4889C21.7086 22.8109 21.3347 23.1083 20.9343 23.3762C20.7191 23.5201 20.6613 23.8113 20.8052 24.0265ZM20.8263 15.5176C20.7963 14.1629 20.637 12.8881 20.3723 11.7411C21.2095 11.3249 21.986 10.787 22.6831 10.1379C23.9571 11.5919 24.7656 13.4634 24.8729 15.5176H20.8263ZM9.2959 21.811C8.03397 20.3605 7.23397 18.4981 7.12727 16.4551H11.1739C11.2036 17.7945 11.3596 19.0557 11.619 20.1925C10.7766 20.6124 9.99584 21.1555 9.2959 21.811ZM11.8618 21.1219C12.2852 22.5475 12.8832 23.725 13.5997 24.5419C12.2176 24.1536 10.9711 23.4384 9.94858 22.4857C10.5298 21.9434 11.1715 21.4857 11.8618 21.1219ZM7.12721 15.5176C7.23453 13.4634 8.04298 11.5919 9.31697 10.1379C10.0141 10.787 10.7906 11.3249 11.6278 11.7411C11.3631 12.8881 11.2038 14.1629 11.1739 15.5175H7.12721V15.5176ZM9.97202 9.46518C10.9902 8.52335 12.2282 7.81616 13.5998 7.43088C12.8895 8.24057 12.296 9.40468 11.8731 10.8135C11.1879 10.4536 10.5503 10.001 9.97202 9.46518ZM20.1269 10.8135C19.7042 9.40468 19.1106 8.24064 18.4003 7.43094C19.7719 7.81622 21.01 8.52341 22.0281 9.46525C21.4497 10.001 20.8122 10.4536 20.1269 10.8135ZM18.6611 22.3951C17.9291 23.9626 16.9592 24.8616 16 24.8616C15.0409 24.8616 14.071 23.9626 13.339 22.3951C13.1015 21.8864 12.8966 21.3259 12.7249 20.7264C13.2926 20.5019 13.8858 20.3348 14.4987 20.2306C14.754 20.1872 14.9257 19.9451 14.8823 19.6899C14.839 19.4346 14.5968 19.2627 14.3417 19.3063C13.7052 19.4144 13.0877 19.583 12.495 19.8085C12.2697 18.7663 12.1382 17.6324 12.1107 16.4551H13.7716C14.0305 16.4551 14.2403 16.2452 14.2403 15.9863C14.2403 15.7274 14.0305 15.5175 13.7716 15.5175H12.1107C12.1386 14.3252 12.2728 13.177 12.5033 12.1238C13.1003 12.3503 13.7224 12.519 14.3635 12.6264C14.3897 12.6308 14.4158 12.6329 14.4416 12.6329C14.6664 12.6329 14.865 12.4706 14.9033 12.2416C14.9462 11.9862 14.7738 11.7445 14.5185 11.7017C13.9028 11.5985 13.307 11.4317 12.7365 11.2071C12.9059 10.6225 13.1067 10.0751 13.3391 9.57757C14.0711 8.01005 15.041 7.11103 16.0001 7.11103C16.9592 7.11103 17.9291 8.01005 18.6611 9.57757C18.8935 10.0751 19.0943 10.6225 19.2637 11.2071C18.6932 11.4317 18.0974 11.5985 17.4817 11.7017C17.2264 11.7445 17.054 11.9862 17.0969 12.2416C17.1352 12.4707 17.3337 12.6329 17.5586 12.6329C17.5843 12.6329 17.6105 12.6308 17.6367 12.6264C18.2778 12.519 18.8998 12.3503 19.4968 12.1237C19.7274 13.177 19.8615 14.3251 19.8894 15.5175H18.4901C18.2311 15.5175 18.0213 15.7274 18.0213 15.9863C18.0213 16.2452 18.2311 16.4551 18.4901 16.4551H19.8894C19.8619 17.6325 19.7303 18.7663 19.5051 19.8086C18.9124 19.5831 18.2949 19.4145 17.6584 19.3063C17.4029 19.2629 17.161 19.4347 17.1177 19.6899C17.0744 19.9451 17.2461 20.1873 17.5013 20.2306C18.1143 20.3348 18.7074 20.5019 19.2752 20.7264C19.1035 21.3259 18.8986 21.8864 18.6611 22.3951ZM20.8263 16.4552H24.8721C24.7672 18.4527 23.9958 20.3318 22.707 21.8137C22.0063 21.157 21.2246 20.6131 20.3811 20.1925C20.6405 19.0558 20.7966 17.7946 20.8263 16.4552Z" fill="black"/>
<path d="M31.0632 10.5815L31.307 10.4224C31.7604 10.1268 32.0135 9.62769 31.9842 9.08733C31.9549 8.54703 31.6494 8.07836 31.1668 7.83359L27.9636 6.20995C27.4815 5.96536 26.9231 5.99549 26.4698 6.29083C26.0164 6.58629 25.7631 7.08534 25.7922 7.62607L25.9869 11.2111C26.016 11.7514 26.3215 12.2201 26.804 12.4649C27.2669 12.6999 27.8001 12.6817 28.2429 12.419C28.783 14.2759 28.8932 16.254 28.5596 18.1771C28.1095 20.7716 26.8836 23.131 25.0143 25.0003C22.6065 27.408 19.4053 28.7342 16.0005 28.7342C13.2759 28.7342 10.6833 27.8923 8.50291 26.2995C7.8466 25.8201 6.93208 25.9028 6.37559 26.4919L6.35659 26.512C6.03956 26.8449 5.88129 27.2992 5.92242 27.7582C5.96399 28.2225 6.20407 28.6469 6.58111 28.9226C9.32073 30.9262 12.577 31.9851 15.9987 31.9851H16.002C20.2745 31.9851 24.2915 30.321 27.3133 27.2992C29.6594 24.9531 31.1981 21.9907 31.7631 18.7324C32.2388 15.9917 31.9964 13.1819 31.0632 10.5815ZM30.8394 18.5722C30.3076 21.639 28.859 24.4275 26.6503 26.6363C23.8057 29.4809 20.0241 31.0475 16.0019 31.0475C16.0014 31.0475 16.0009 31.0475 16.0004 31.0475C15.9998 31.0475 15.9995 31.0475 15.9988 31.0475C12.7776 31.0475 9.71226 30.051 7.1346 28.1658C6.97527 28.0493 6.87382 27.8702 6.85632 27.6746C6.83901 27.4814 6.9027 27.2981 7.03552 27.1586L7.05728 27.1357C7.2903 26.8891 7.67408 26.8551 7.94992 27.0566C10.2919 28.7675 13.0758 29.6717 16.0005 29.6717C19.6557 29.6717 23.0923 28.2481 25.6773 25.6632C27.6839 23.6565 29 21.1233 29.4834 18.3373C29.8786 16.0588 29.6931 13.7079 28.9469 11.5385C28.8999 11.4019 28.7926 11.2946 28.656 11.2476C28.5193 11.2008 28.3687 11.2194 28.2477 11.2983L27.7871 11.5986C27.5428 11.7579 27.3148 11.6728 27.2283 11.6288C27.1418 11.5849 26.9388 11.4514 26.9232 11.1605L26.7285 7.57538C26.7128 7.2841 26.9004 7.12928 26.9818 7.07627C27.063 7.02327 27.28 6.91438 27.5397 7.04608L30.7429 8.66979C31.0026 8.80155 31.0429 9.04114 31.0481 9.13808C31.0534 9.23503 31.0392 9.47774 30.7948 9.63707L30.237 10.0011C30.0517 10.122 29.9761 10.3561 30.0559 10.5625C31.0368 13.1033 31.3078 15.8729 30.8394 18.5722Z" fill="black"/>
<path d="M6.20775 24.3467L6.01279 20.7617C5.98373 20.2214 5.67826 19.7528 5.19572 19.5079C4.7328 19.2731 4.19994 19.2912 3.75696 19.5538C3.21654 17.6972 3.10628 15.7192 3.44006 13.7956C3.8896 11.2019 5.11565 8.8426 6.98569 6.97262C9.3931 4.56453 12.5943 3.23835 15.9994 3.23835C18.7232 3.23835 21.3158 4.08036 23.4965 5.67332C24.1526 6.1528 25.0673 6.07035 25.6282 5.47668L25.6347 5.47017C25.6377 5.46717 25.6407 5.46411 25.6437 5.46105C25.9605 5.12796 26.1186 4.6736 26.0774 4.21444C26.0358 3.75014 25.7957 3.32573 25.4187 3.05002C22.9523 1.24648 20.0287 0.197263 16.964 0.0158718C16.7048 -4.59235e-06 16.4836 0.197701 16.4683 0.456099C16.453 0.71456 16.6501 0.936517 16.9086 0.951768C19.7931 1.12253 22.5445 2.10981 24.8652 3.80677C25.0246 3.92329 25.126 4.10243 25.1435 4.29819C25.1607 4.48984 25.0983 4.67185 24.9678 4.81112C24.9587 4.82018 24.9498 4.82937 24.9408 4.83899C24.7075 5.08408 24.3249 5.11752 24.0496 4.91625C21.707 3.20516 18.9233 2.30076 15.9993 2.30076C12.3437 2.30076 8.90705 3.72452 6.32257 6.30969C4.31514 8.31706 2.99896 10.8503 2.51623 13.6354C2.12075 15.9144 2.3064 18.2654 3.05303 20.4344C3.10003 20.571 3.20748 20.6783 3.34411 20.7252C3.48075 20.772 3.63145 20.7534 3.7524 20.6744L4.21244 20.3744C4.45696 20.2149 4.6848 20.3001 4.77143 20.344C4.85794 20.388 5.06083 20.5214 5.07652 20.8122L5.27148 24.3973C5.28716 24.6887 5.09946 24.8435 5.01801 24.8965C4.93676 24.9495 4.71986 25.0582 4.46015 24.9265L1.25668 23.3026C0.997341 23.1712 0.957025 22.9319 0.951712 22.8352C0.946399 22.7381 0.9604 22.4952 1.20448 22.3358L1.76266 21.972C1.94818 21.8511 2.02381 21.617 1.94405 21.4104C0.962838 18.8694 0.691876 16.0996 1.16042 13.4005C1.69184 10.3342 3.14035 7.54561 5.34917 5.33616C7.95959 2.72574 11.419 1.1686 15.09 0.951643C15.3484 0.936392 15.5456 0.714497 15.5303 0.456036C15.515 0.197576 15.2932 0.000245431 15.0347 0.0157468C11.1343 0.24633 7.45917 1.90042 4.68617 4.67335C2.3399 7.02025 0.801323 9.98271 0.236648 13.2404C-0.239083 15.9809 0.00325179 18.7906 0.936523 21.3915L0.692251 21.5506C0.238898 21.8466 -0.0140623 22.346 0.0155028 22.8866C0.045068 23.4265 0.350658 23.8947 0.832826 24.139L4.03605 25.7628C4.25251 25.8726 4.48422 25.9271 4.71493 25.9271C4.99833 25.9271 5.2801 25.8449 5.52987 25.6822C5.98348 25.3867 6.23687 24.8875 6.20775 24.3467Z" fill="black"/>
<path d="M17.8867 17.4746C18.0355 16.5891 17.5729 15.8194 16.7082 15.5137C16.2044 15.3356 15.6466 15.12 15.3287 14.8707C15.2066 14.7749 15.154 14.5738 15.1946 14.3583C15.2344 14.1466 15.378 13.89 15.661 13.8047C16.2853 13.6167 16.7007 13.9417 16.746 13.9794C16.945 14.1448 17.2406 14.1179 17.4062 13.9188C17.5718 13.7198 17.5447 13.4242 17.3456 13.2586C17.2586 13.1862 16.9315 12.9385 16.4348 12.8445V12.5558C16.4348 12.2969 16.225 12.087 15.966 12.087C15.7071 12.087 15.4972 12.2969 15.4972 12.5558V12.8775C15.462 12.8864 15.4265 12.8961 15.3906 12.9069C14.8173 13.0796 14.3892 13.5692 14.2732 14.1846C14.1669 14.7487 14.3496 15.2943 14.75 15.6084C15.0923 15.8768 15.5691 16.1055 16.3958 16.3977C17.0274 16.621 16.9889 17.1594 16.9621 17.3191C16.8938 17.7255 16.5519 18.1647 15.9629 18.1686C15.421 18.1725 15.2364 18.1429 14.8122 17.8654C14.5955 17.7236 14.3049 17.7844 14.1632 18.001C14.0215 18.2177 14.0822 18.5082 14.2989 18.65C14.7673 18.9564 15.0961 19.0609 15.4973 19.0932V19.4172C15.4973 19.6761 15.7072 19.886 15.9661 19.886C16.225 19.886 16.4349 19.6761 16.4349 19.4172V19.0492C17.2494 18.85 17.7719 18.1575 17.8867 17.4746Z" fill="black"/>
</g>
<defs>
<clipPath id="clip0_159_4051">
<rect width="32" height="32" fill="white"/>
</clipPath>
</defs>
</svg>
