<svg width="48" height="44" viewBox="0 0 48 44" fill="none" xmlns="http://www.w3.org/2000/svg">
<path d="M47.2969 37.2959C46.9085 37.2959 46.5938 37.6005 46.5938 37.9761V42.521C46.5938 42.5841 46.5407 42.6355 46.4754 42.6355H43.8037V32.6977C43.8037 32.322 43.489 32.0175 43.1005 32.0175C42.7121 32.0175 42.3974 32.322 42.3974 32.6977V42.6356H37.2346L38.632 41.1485C38.8478 40.9188 38.9495 40.5926 38.9042 40.2758C38.9032 40.269 38.9021 40.2623 38.9009 40.2555L37.3302 31.2773L37.6192 30.8564L37.6945 30.9081C37.9522 31.0852 38.2809 31.1497 38.5989 31.0729C38.9111 30.9974 39.1728 30.7941 39.3166 30.5155V30.5154L40.915 27.4164L44.566 28.7843C44.7101 28.8449 46.5934 29.6803 46.5934 31.8538V34.8017C46.5935 35.1774 46.9082 35.482 47.2966 35.482C47.685 35.482 47.9997 35.1774 47.9997 34.8018V31.8539C47.9997 28.715 45.2168 27.5722 45.0984 27.525C45.0939 27.5232 45.0895 27.5215 45.0849 27.5199L38.8677 25.1905V23.9516C39.8382 23.1964 40.5198 22.1078 40.7245 20.8668C41.2085 20.8081 41.6575 20.6206 42.0302 20.3105C42.5646 19.8659 42.8712 19.219 42.8712 18.5358C42.8712 17.9905 42.6756 17.4687 42.3252 17.0542V15.2187C42.3252 11.6268 39.3044 8.70456 35.5916 8.70456C33.9246 8.70456 32.3983 9.29479 31.2211 10.269C31.2059 9.7478 31.0131 9.25116 30.677 8.85357V7.01822C30.677 3.42624 27.6562 0.504028 23.9433 0.504028C20.2303 0.504028 17.2096 3.42633 17.2096 7.01822V8.90145C16.8716 9.29216 16.6825 9.76322 16.6658 10.2632C15.9147 9.64223 15.0157 9.17471 14.0138 8.9195C13.6377 8.82373 13.2536 9.04076 13.1547 9.40407C13.0558 9.76739 13.28 10.1395 13.6556 10.2352C15.9912 10.8301 17.6224 12.8795 17.6224 15.2187V16.236C17.5921 16.2299 17.4946 16.2136 17.4908 16.2131C17.4812 16.0211 17.431 15.9038 17.3228 15.7533C17.1428 15.5031 16.8196 15.1914 15.7799 14.1103C15.4094 13.7253 14.8101 13.6547 14.3553 13.9423C12.5745 15.0677 10.411 15.6412 8.40327 15.5272C7.74927 15.4901 7.3408 15.7681 7.16671 16.2236C7.15114 16.2261 6.97724 16.26 6.96758 16.2623V15.2187C6.96758 12.9632 8.52552 10.9341 10.7561 10.2842C11.1279 10.1759 11.3386 9.79641 11.2266 9.43663C11.1146 9.07685 10.7218 8.87307 10.3504 8.98153C8.99389 9.37677 7.77449 10.1997 6.91714 11.2986C6.02999 12.4353 5.56115 13.7909 5.56115 15.2187V17.1021C5.20696 17.5115 5.01543 18.009 5.01543 18.5358C5.01543 19.7003 5.9023 20.7159 7.16586 20.8674C7.37286 22.0793 8.05255 23.2415 9.12523 24.0317V25.1909L2.91496 27.52C2.91056 27.5217 2.90615 27.5234 2.90174 27.5251C2.78306 27.5722 0 28.7149 0 31.8538V42.521C0 43.3344 0.683999 43.996 1.52484 43.996H23.1783C23.481 43.996 23.7625 43.9092 24 43.7616C24.2374 43.9092 24.519 43.996 24.8218 43.996H46.4754C47.3161 43.996 48.0001 43.3344 48.0001 42.521V37.9761C48 37.6005 47.6853 37.2959 47.2969 37.2959ZM7.09705 19.4619C6.68483 19.3172 6.42149 18.9483 6.42149 18.5357C6.42149 18.1354 6.72149 17.8066 7.09705 17.6505V19.4619ZM39.598 26.9229L38.2178 29.5989C38.2176 29.5987 36.6847 28.5455 36.6629 28.5305C37.3242 27.7408 37.0136 28.1118 38.3887 26.4699L39.598 26.9229ZM35.6465 27.583L33.828 25.4115V24.759C34.4191 24.9567 35.0559 25.0479 35.6552 25.0481C35.6553 25.0481 35.6555 25.0481 35.6556 25.0481H35.6557C36.2754 25.048 36.9027 24.9342 37.4615 24.7308V25.4157L35.6465 27.583ZM36.4721 30.0682L36.2134 30.4449H35.0799L34.8212 30.0682L35.6467 29.5011L36.4721 30.0682ZM23.9982 19.3824L22.1797 17.2109V16.5584C22.7685 16.7553 23.4046 16.8473 24.0069 16.8475C24.007 16.8475 24.0072 16.8475 24.0073 16.8475H24.0074C24.6259 16.8475 25.2532 16.734 25.8132 16.5303V17.2151L23.9982 19.3824ZM24.8236 21.8678L24.565 22.2444H23.4315L23.1728 21.8678L23.9983 21.3007L24.8236 21.8678ZM18.461 12.6015C18.576 12.6318 18.6941 12.6524 18.814 12.6667C19.021 13.8787 19.7007 15.0409 20.7734 15.8311V16.9902L19.3389 17.5281C19.2557 17.3592 19.1518 17.2 19.0284 17.0541V15.2187C19.0284 14.2957 18.8274 13.4083 18.461 12.6015ZM27.7346 11.8813C27.7346 13.8722 26.0557 15.4868 24.0074 15.4868C21.6963 15.4868 20.1519 13.7542 20.1519 11.8813V8.69504C22.3722 8.78101 24.6787 8.14444 26.5645 7.00897C27.1985 7.66667 27.5758 8.04876 27.7347 8.22615C27.7346 9.91966 27.7346 10.5736 27.7346 11.8813ZM29.0762 12.6663C29.1955 12.6518 29.313 12.6311 29.4273 12.6009C29.0621 13.4026 28.8577 14.2878 28.8577 15.2187V17.102C28.7496 17.2269 28.6566 17.3599 28.5796 17.4995L27.2195 16.99V15.7511C28.1899 14.9957 28.8716 13.9072 29.0762 12.6663ZM21.2536 18.2704L22.9797 20.3315L21.8026 21.1403C21.8019 21.1407 21.8014 21.1412 21.8008 21.1416L21.4272 21.3984L20.0469 18.7225L21.2536 18.2704ZM25.6165 19.6112L26.7403 18.2693L27.9495 18.7223L26.5695 21.3984L26.195 21.1412C26.1946 21.1409 26.1943 21.1405 26.1939 21.1403L25.0146 20.3299L25.6165 19.6112ZM25.9709 22.6558L26.0461 22.7075C26.309 22.8882 26.6389 22.9479 26.9505 22.8724C27.2628 22.7969 27.5245 22.5936 27.6683 22.315V22.3149L28.855 20.0141C29.2627 20.5002 29.8524 20.7959 30.4597 20.8693C30.6742 22.1698 31.4009 23.2797 32.4218 24.0317V25.1908L26.4439 27.4328L25.6817 23.0768L25.9709 22.6558ZM32.9019 26.4709L34.628 28.532C33.8733 29.0507 33.1146 29.5721 33.0755 29.5989L31.6952 26.923L32.9019 26.4709ZM39.3828 20.0819C39.383 22.0242 37.7524 23.6875 35.6557 23.6875C33.2658 23.6875 31.8002 21.8767 31.8002 20.0819V16.8957C34.0047 16.9808 36.3142 16.3527 38.2127 15.2096C38.8467 15.8673 39.224 16.2494 39.3829 16.4268C39.3828 18.1202 39.3828 18.7742 39.3828 20.0819ZM41.465 18.5357C41.465 18.9491 41.2008 19.3172 40.7894 19.4619V17.6115C41.2147 17.7613 41.465 18.1372 41.465 18.5357ZM30.264 15.2187C30.264 12.3769 32.654 10.0649 35.5915 10.0649C38.529 10.0649 40.9188 12.377 40.9188 15.2187V16.236C40.8868 16.2295 40.7989 16.2148 40.7872 16.2131C40.7776 16.0209 40.7271 15.9034 40.6192 15.7533C40.4344 15.4965 40.1147 15.1902 39.0762 14.1103C38.7136 13.7337 38.1157 13.6489 37.6516 13.9423C35.9191 15.0372 33.7303 15.6556 31.6474 15.5247C31.0623 15.4877 30.6385 15.7648 30.4631 16.2237C30.4474 16.2262 30.2738 16.2601 30.2639 16.2624V15.2187H30.264ZM30.3939 17.6506V19.461C29.9804 19.3168 29.7183 18.9469 29.7183 18.5357C29.7182 18.1354 30.018 17.8068 30.3939 17.6506ZM29.8165 10.3352C29.8165 10.6216 29.6883 10.8925 29.4649 11.0784C29.369 11.1582 29.2597 11.2195 29.1409 11.2613V9.41087C29.5614 9.55852 29.8165 9.93245 29.8165 10.3352ZM23.9431 1.86442C26.8806 1.86442 29.2705 4.17636 29.2705 7.01813V8.03543C29.2387 8.02908 29.1506 8.0143 29.1389 8.01257C29.1284 7.80425 29.0664 7.67619 28.9397 7.5105C28.7515 7.26399 28.4044 6.92508 27.4279 5.90968C27.0592 5.52668 26.4603 5.45277 26.0033 5.74172C24.1737 6.89805 21.9541 7.4608 19.9424 7.3214C19.4502 7.2854 18.9868 7.57308 18.8148 8.023C18.7992 8.02545 18.6255 8.05937 18.6157 8.06164V7.01822H18.6156C18.6156 4.17636 21.0056 1.86442 23.9431 1.86442ZM18.7454 9.44996V11.2614C18.3332 11.1166 18.0698 10.7478 18.0698 10.3351C18.0698 9.93716 18.3675 9.60713 18.7454 9.44996ZM17.4925 17.6115C17.8859 17.75 18.1385 18.082 18.1636 18.4766C18.1951 18.9154 17.9163 19.3122 17.4925 19.4611V17.6115ZM17.4273 20.8691C18.0905 20.7888 18.6992 20.4507 19.0984 19.9306L20.3282 22.3149C20.3282 22.3149 20.3282 22.3149 20.3283 22.315C20.4721 22.5937 20.7337 22.7969 21.046 22.8724C21.3547 22.947 21.685 22.8899 21.9504 22.7075L22.0257 22.6558L22.3147 23.0767L21.5528 27.4315L15.5712 25.1904V23.9521H15.5711C16.567 23.1753 17.2275 22.0778 17.4273 20.8691ZM12.3497 27.583L10.5312 25.4115V24.759C11.1199 24.9559 11.7561 25.0479 12.3585 25.048C12.3586 25.048 12.3588 25.048 12.3589 25.048C12.9875 25.048 13.6138 24.9312 14.1647 24.7308V25.4157L12.3497 27.583ZM13.1752 30.0682L12.9166 30.4449H11.783L11.5244 30.0682L12.3499 29.5011L13.1752 30.0682ZM15.0918 26.4699L16.3011 26.923L14.9209 29.5989L14.5465 29.3417C14.5461 29.3414 14.5458 29.3411 14.5454 29.3408L13.3661 28.5305L15.0918 26.4699ZM8.50339 20.0819V16.8957C10.7355 16.9819 13.0435 16.3369 14.9159 15.2096C15.5439 15.8611 15.927 16.2492 16.0861 16.4268C16.0861 18.1203 16.0861 18.7743 16.0861 20.0819C16.0861 22.0602 14.4187 23.6875 12.3589 23.6875C10.0655 23.6875 8.50339 21.9745 8.50339 20.0819ZM9.60514 26.4709L11.3313 28.532L10.1541 29.3408C10.1535 29.3412 10.153 29.3417 10.1524 29.3422L9.77876 29.5989L8.39848 26.923L9.60514 26.4709ZM5.60277 42.6357V32.6977C5.60277 32.322 5.28805 32.0175 4.89965 32.0175C4.51124 32.0175 4.19652 32.322 4.19652 32.6977V42.6356H1.52484C1.4594 42.6356 1.40634 42.5842 1.40634 42.5211V31.8538C1.40634 29.6691 3.30918 28.8364 3.43237 28.7848L7.08121 27.4164L8.67973 30.5154C8.67973 30.5154 8.67973 30.5154 8.67983 30.5155C8.82355 30.7942 9.0852 30.9974 9.39758 31.0729C9.70629 31.1476 10.0366 31.0904 10.302 30.9081L10.3773 30.8564L10.6663 31.2773L9.09551 40.2555C9.0943 40.2622 9.09326 40.269 9.09223 40.2758C9.04705 40.5924 9.14876 40.9186 9.36467 41.1487L10.7618 42.6356H5.60277V42.6357ZM10.5068 40.3415L12.0002 31.8054H12.6994L14.1929 40.3415L12.3499 42.3029L10.5068 40.3415ZM23.2967 42.521C23.2967 42.5842 23.2437 42.6356 23.1783 42.6356H20.5068V32.6977C20.5068 32.322 20.1921 32.0175 19.8037 32.0175C19.4153 32.0175 19.1006 32.322 19.1006 32.6977V42.6356H13.9378L15.3351 41.1485C15.5509 40.9188 15.6527 40.5926 15.6074 40.2758C15.6063 40.269 15.6053 40.2623 15.6041 40.2555L14.0333 31.2773L14.3223 30.8564L14.3976 30.9081C14.5858 31.0374 14.8085 31.1049 15.0346 31.1049C15.447 31.1049 15.8311 30.8813 16.0199 30.5155V30.5154L17.6182 27.4165L21.2693 28.7844C22.3336 29.2322 23.2966 30.3872 23.2966 31.8538V42.521H23.2967ZM24 29.3821C23.7087 28.928 23.3209 28.508 22.8535 28.1495L23.6486 23.6049H24.3479L25.1433 28.1518C24.6634 28.5205 24.2807 28.9444 24 29.3821ZM28.8995 42.6357V32.6977C28.8995 32.322 28.5848 32.0175 28.1964 32.0175C27.808 32.0175 27.4933 32.322 27.4933 32.6977V42.6356H24.8217C24.7563 42.6356 24.7032 42.5842 24.7032 42.5211V31.8538C24.7032 31.0452 24.9653 30.3004 25.5237 29.6747C25.896 29.2616 26.3897 28.9271 26.7293 28.7848L30.3781 27.4163L31.9767 30.5154C31.9767 30.5154 31.9767 30.5154 31.9768 30.5155C32.1205 30.7942 32.3821 30.9974 32.6944 31.0729C33.0031 31.1476 33.3334 31.0904 33.5988 30.9081L33.6741 30.8564L33.9631 31.2773L32.3923 40.2555C32.3911 40.2622 32.3901 40.269 32.3891 40.2758C32.3439 40.5924 32.4456 40.9186 32.6615 41.1487L34.0587 42.6356H28.8995V42.6357ZM33.8036 40.3416L35.297 31.8055H35.9963L37.4897 40.3416L35.6466 42.303L33.8036 40.3416Z" fill="#4C4C4C"/>
</svg>
