<svg width="45" height="43" viewBox="0 0 45 43" fill="none" xmlns="http://www.w3.org/2000/svg">
<path d="M15.0044 0.864624C11.6933 0.864624 9.00292 3.35889 9.00292 6.42849V9.03984C8.54677 9.42281 8.25293 9.98836 8.25293 10.5976C8.25293 11.8677 9.35476 12.7071 10.5542 12.6809C10.7164 13.7258 11.2425 14.6665 12.0029 15.3874V18.2461C9.35544 18.2461 7.07502 19.6625 5.9707 21.7227H4.50292C3.2694 21.7227 2.25292 22.665 2.25292 23.8086V26.5898C2.23875 27.5301 3.76728 27.5301 3.75293 26.5898V23.8086C3.75293 23.4114 4.07444 23.1133 4.50292 23.1133H27.0029C27.4314 23.1133 27.7529 23.4114 27.7529 23.8086V35.6276H3.75293V32.8476C3.7586 32.4557 3.41402 32.1367 2.99121 32.1429C2.57758 32.1481 2.24726 32.4642 2.25292 32.8476V37.0195C2.25292 37.5274 2.41223 37.9991 2.67186 38.4101H0.752915C0.338717 38.4088 0.00164907 38.7187 4.97522e-06 39.1027V41.8854C-0.00149512 42.2715 0.336421 42.5849 0.752915 42.5834H44.2529C44.6671 42.582 45.0016 42.2694 45 41.8854V39.1027C44.9984 38.7209 44.6648 38.4117 44.2529 38.4101H38.9824C39.3147 38.0036 39.563 37.5366 39.6768 37.0195H40.5058C41.7394 37.0195 42.7529 36.0786 42.7529 34.935V33.5443C42.7544 33.1603 42.42 32.8479 42.0058 32.8464H39.7529V32.1537C39.7544 31.7692 39.4192 31.4565 39.0044 31.4557H31.5029C31.0887 31.4571 30.7543 31.7697 30.7558 32.1537V36.3269C30.7558 37.1117 31.05 37.8273 31.5264 38.4101H28.834C29.0936 37.9991 29.2529 37.5274 29.2529 37.0195V23.8086C29.2529 22.665 28.2365 21.7227 27.0029 21.7227H25.5351C24.4308 19.6625 22.1504 18.2461 19.5029 18.2461V15.3874C20.1846 14.7933 20.7824 13.785 20.9487 12.6863C22.3943 12.6859 23.2529 11.6411 23.2529 10.5976C23.2529 9.98702 22.9697 9.41219 22.5029 9.04273L22.5001 6.42849C22.4972 3.35889 19.8155 0.864624 16.5045 0.864624H15.0044ZM15.0044 2.25527H16.5044C19.0104 2.25527 21 4.10525 21 6.42849V8.51173H20.5635L18.5317 6.62811C18.2392 6.3585 17.7667 6.3585 17.4741 6.62811C17.4741 6.62811 15.3765 8.51173 12.7515 8.51173H10.5029V6.42849C10.5029 4.10525 12.4984 2.25527 15.0044 2.25527ZM17.9616 8.06735L19.5029 9.49497V11.9883C19.5029 13.9263 17.8434 15.4649 15.7529 15.4649C13.6624 15.4649 12.0029 13.9263 12.0029 11.9883V9.90374H12.7515C15.3199 9.90374 17.177 8.6223 17.9616 8.06735ZM10.5029 11.293C10.0744 11.293 9.75291 10.9706 9.75291 10.5976C9.75291 10.2247 10.0711 9.9074 10.4992 9.90374L10.5029 11.293ZM21.7529 10.5976C21.7529 10.9786 21.4314 11.293 21.0029 11.293L21.0058 9.90374C21.4339 9.90637 21.752 10.2192 21.752 10.5976H21.7529ZM13.5029 16.3788C14.186 16.6809 14.9468 16.8555 15.7529 16.8555C16.559 16.8555 17.3198 16.681 18.0029 16.3788V18.2461C18.0029 18.2461 17.9972 19.6367 15.7529 19.6367C13.5073 19.6367 13.5029 18.2461 13.5029 18.2461V16.3788ZM12.4819 19.6367C12.4819 19.6367 13.2089 21.0273 15.7529 21.0273C18.297 21.0273 19.0239 19.6367 19.0239 19.6367H19.5029C21.2988 19.6367 22.8573 20.465 23.8022 21.7227H7.70361C8.64859 20.465 10.2071 19.6367 12.0029 19.6367H12.4819ZM33.7397 25.8864C33.3272 25.8943 32.9981 26.2074 33.0029 26.5898V29.3711C32.9803 30.3184 34.525 30.3184 34.5029 29.3711V26.5898C34.5086 26.1978 34.1625 25.8795 33.7397 25.8864ZM36.7397 25.8864C36.3278 25.8943 35.9995 26.2079 36.0044 26.5898V29.3711C35.9817 30.3192 37.5273 30.3192 37.5044 29.3711V26.5898C37.51 26.1973 37.1631 25.8787 36.7397 25.8864ZM15.7514 27.2879C14.5177 27.2879 13.5044 28.2328 13.5044 29.3766C13.5044 30.5203 14.5177 31.4612 15.7514 31.4612C16.9852 31.4612 18.0058 30.5203 18.0058 29.3766C18.0058 28.2328 16.9852 27.2879 15.7514 27.2879ZM2.99121 28.6662C2.57758 28.6715 2.24726 28.9876 2.25292 29.3711V30.0664C2.23875 31.0067 3.76728 31.0067 3.75293 30.0664V29.3711C3.7586 28.9791 3.41402 28.6601 2.99121 28.6662ZM15.7514 28.6794C16.1745 28.6794 16.5044 28.9852 16.5044 29.3774C16.5044 29.7697 16.1745 30.07 15.7514 30.07C15.3283 30.07 15.0044 29.7697 15.0044 29.3774C15.0044 28.9852 15.3283 28.6794 15.7514 28.6794ZM32.25 32.8472H38.2514V36.3279C38.2514 37.4955 37.2639 38.411 36.0044 38.411H34.5029C33.2435 38.411 32.25 37.4955 32.25 36.3279V32.8472ZM39.7529 34.2379H41.2529V34.9359C41.2529 35.3331 40.9343 35.6285 40.5058 35.6285H39.7529V34.2379ZM3.75293 37.0205H27.7529C27.7529 37.8029 27.0969 38.411 26.2529 38.411H5.25291C4.40893 38.411 3.75293 37.8029 3.75293 37.0205ZM1.50146 39.8017H43.5V41.1937H1.50146V39.8017Z" fill="#4C4C4C"/>
</svg>
