<svg width="32" height="29" viewBox="0 0 32 29" fill="none" xmlns="http://www.w3.org/2000/svg">
<path d="M16 0C10.0702 0 5.24609 4.73618 5.24609 10.5578C5.24609 12.8263 5.96753 14.9876 7.33247 16.8088L15.4801 28.6834C15.5966 28.8532 15.7915 28.955 16 28.955C16.2085 28.955 16.4033 28.8532 16.5198 28.6834L24.6675 16.8088C26.0324 14.9876 26.7538 12.8264 26.7538 10.5579C26.7538 4.73619 21.9297 0 16 0ZM23.6481 16.0923C23.6402 16.1028 23.6325 16.1137 23.6252 16.1249L16 27.2381L8.37603 16.1267C8.36841 16.1149 8.36034 16.1035 8.35191 16.0922C7.14022 14.4811 6.49978 12.5674 6.49978 10.5578C6.49978 5.4149 10.7616 1.23083 16 1.23083C21.2383 1.23083 25.5002 5.41496 25.5002 10.5578C25.5002 12.5674 24.8597 14.4812 23.6481 16.0923Z" fill="black"/>
<path d="M20.3879 9.87735C20.0417 9.87735 19.7611 10.1529 19.7611 10.4927C19.7611 12.5287 18.0739 14.1852 16.0001 14.1852C13.9263 14.1852 12.2391 12.5287 12.2391 10.4927C12.2391 8.45672 13.9263 6.80029 16.0001 6.80029C16.7539 6.80029 17.4809 7.01825 18.1025 7.43053C18.3894 7.62081 18.779 7.54674 18.9729 7.2651C19.1667 6.98352 19.0912 6.60093 18.8044 6.41065C17.9746 5.86037 17.0049 5.56946 16 5.56946C13.2349 5.56946 10.9854 7.77801 10.9854 10.4927C10.9854 13.2075 13.2349 15.416 16 15.416C18.7652 15.416 21.0147 13.2075 21.0147 10.4927C21.0147 10.1529 20.7341 9.87735 20.3879 9.87735Z" fill="black"/>
<path d="M19.886 7.85291H19.8734C19.5272 7.85291 19.2466 8.12842 19.2466 8.46829C19.2466 8.80817 19.5272 9.08368 19.8734 9.08368H19.886C20.2321 9.08368 20.5128 8.80817 20.5128 8.46829C20.5128 8.12842 20.2321 7.85291 19.886 7.85291Z" fill="black"/>
</svg>
