<svg width="34" height="34" viewBox="0 0 34 34" fill="none" xmlns="http://www.w3.org/2000/svg">
<path d="M8.9787 23.6042H18.1965C18.4714 23.6042 18.6945 23.3814 18.6945 23.1062C18.6945 22.8312 18.4714 22.6081 18.1965 22.6081H8.9787C8.43681 22.6081 7.99609 22.1674 7.99609 21.6253V12.979C7.99609 12.8386 8.02592 12.7056 8.0791 12.5849L15.4043 18.3151C15.6307 18.4922 15.9021 18.5807 16.1734 18.5807C16.4447 18.5807 16.7161 18.4922 16.9425 18.3151L24.268 12.5847C24.3211 12.7056 24.351 12.8386 24.351 12.979V21.6253C24.351 22.1674 23.9102 22.6084 23.3684 22.6084H20.4753C20.2001 22.6084 19.9772 22.8312 19.9772 23.1064C19.9772 23.3814 20.2001 23.6045 20.4753 23.6045H23.3684C24.4594 23.6045 25.3471 22.7166 25.3471 21.6253V12.979C25.3471 12.5188 25.1891 12.0954 24.9248 11.759C24.9095 11.6428 24.8539 11.5346 24.7655 11.4547C24.441 11.1613 24.0223 11 23.587 11H8.76003C8.32449 11 7.90608 11.1616 7.58131 11.455C7.49312 11.5346 7.43761 11.6431 7.4223 11.759C7.15797 12.0954 7 12.519 7 12.979V21.6255C7 22.7166 7.88766 23.6042 8.9787 23.6042ZM23.3684 11.9961C23.3798 11.9961 23.3907 11.9974 23.4018 11.9977L16.3288 17.5304C16.2375 17.602 16.1096 17.602 16.018 17.5304L8.94498 11.9977C8.95639 11.9971 8.96729 11.9958 8.9787 11.9958H23.3684V11.9961Z" fill="black"/>
<path d="M26.9629 6.03755L26.9629 6.03754C24.0365 3.11096 20.1448 1.5 16 1.5C12.5185 1.5 9.23372 2.62384 6.49517 4.75117L6.49515 4.75119C6.44062 4.79354 6.43077 4.87208 6.4731 4.92656C6.5155 4.98113 6.59408 4.99093 6.6485 4.94865L6.64852 4.94864C9.34193 2.85639 12.5776 1.75 16 1.75C24.4093 1.75 31.25 8.59067 31.25 17C31.25 21.4201 29.3902 25.5235 26.1132 28.418L26.1045 28.4257L26.0955 28.4329L24.9827 29.3274L24.9734 29.3349L24.9637 29.342C22.3493 31.2454 19.2567 32.25 16 32.25C12.7431 32.25 9.65003 31.2456 7.03559 29.3422L7.02583 29.3351L7.01643 29.3275L5.9038 28.4322L5.89485 28.425L5.88624 28.4174C2.60963 25.5233 0.75 21.42 0.75 17C0.75 14.2024 1.51234 11.4672 2.95549 9.09038L2.95551 9.09034C2.9913 9.0314 2.97263 8.95467 2.91374 8.91875C2.85443 8.88277 2.77758 8.90175 2.74182 8.96063C1.27557 11.3755 0.5 14.1554 0.5 17C0.5 25.542 7.4082 32.5 16 32.5C24.57 32.5 31.5 25.5633 31.5 17C31.5 12.8555 29.8892 8.96402 26.9629 6.03755Z" stroke="black"/>
<path d="M4.625 7.25C4.27982 7.25 4 6.97018 4 6.625C4 6.27982 4.27982 6 4.625 6C4.97018 6 5.25 6.27982 5.25 6.625C5.25 6.97018 4.97018 7.25 4.625 7.25Z" fill="black"/>
</svg>
