<svg width="28" height="30" viewBox="0 0 28 30" fill="none" xmlns="http://www.w3.org/2000/svg">
<path d="M1.50195 0.000301812C0.679603 0.000301812 -0.000976562 0.676918 -0.000976562 1.49929V28.4983C-0.000976562 29.3207 0.679603 30.0003 1.50195 30.0003H15.501C16.1825 30.0154 16.1825 28.9852 15.501 29.0003H1.50195C1.21629 29.0003 0.999998 28.7839 0.999998 28.4983V1.49929C0.999998 1.21363 1.21629 1.00124 1.50195 1.00124H17V3.49932C17 4.32167 17.6757 4.9983 18.498 4.9983H21.001V10.4973C20.9857 11.1792 22.0163 11.1792 22.001 10.4973V4.50026C22.0009 4.36722 21.9479 4.23964 21.8535 4.14581L17.8525 0.144825C17.7592 0.0524159 17.6333 0.000622093 17.502 0.000244141L1.50195 0.000301812ZM18 1.70927L20.291 3.99736H18.498C18.2124 3.99736 18 3.78497 18 3.49932V1.70927ZM6.93847 3.99736C6.27115 3.99736 6.27115 4.9983 6.93847 4.9983H14.501C15.1683 4.9983 15.1683 3.99736 14.501 3.99736H6.93847ZM3.49804 6.99833C2.81641 6.98321 2.81641 8.01348 3.49804 7.99835H18.498C19.1797 8.01347 19.1797 6.9832 18.498 6.99833H3.49804ZM3.49804 10.9993H5.49902C6.18065 11.0144 6.18065 9.98418 5.49902 9.9993H3.47412C2.79905 10.0452 2.8455 11.0159 3.49802 10.9993H3.49804ZM7.37402 10.9993H18.498C19.1797 11.0144 19.1797 9.98418 18.498 9.9993H7.35009C6.67502 10.0452 6.72147 11.0159 7.37404 10.9993H7.37402ZM22.001 11.9993V12.0003C20.6246 12.0003 19.498 13.122 19.498 14.4983C19.498 15.1094 19.6703 16.7995 19.8789 18.8021C20.0711 20.6472 20.3975 23.5892 20.4541 24.1009C17.7581 24.4504 16.1992 25.6009 16.1992 25.6009C16.0741 25.6952 16.0003 25.8426 16 25.9993V27.4984C15.999 27.776 16.2243 28.0014 16.502 28.0003H17V29.4983C16.999 29.776 17.2243 30.0014 17.502 30.0003H26.5C26.7762 29.9993 26.9991 29.7746 26.998 29.4983V28.0003H27.5C27.7765 27.9998 28.0001 27.7749 27.999 27.4984V25.9993C27.9987 25.8427 27.925 25.6951 27.7998 25.6009C27.7998 25.6009 25.6438 23.9993 22.001 23.9993C21.8117 23.9993 21.6294 24.005 21.4482 24.0145C21.3937 23.5222 21.0635 20.5464 20.8711 18.699C20.663 16.7015 20.499 14.8877 20.499 14.4988C20.499 13.6591 21.1613 13.0007 22.001 13.0007C22.8406 13.0007 23.4941 13.6589 23.5 14.5027C23.5021 14.8119 23.3941 16.0877 23.2412 17.6033C23.0883 19.1188 22.8933 20.9256 22.7207 22.4861C22.6111 23.176 23.6688 23.2945 23.7139 22.5974C23.8866 21.0357 24.0838 19.2248 24.2373 17.7029C24.3907 16.1809 24.5035 14.9976 24.5 14.4949C24.4905 13.1228 23.3773 11.9997 22.001 11.9997V11.9993ZM3.49804 14.0003H17C17.6816 14.0154 17.6816 12.9851 17 13.0003H3.47412C2.79905 13.0462 2.8455 14.0168 3.49802 14.0003H3.49804ZM3.49804 17.0013H12.999C13.6511 16.9861 13.6511 16.0157 12.999 16.0012H3.47412C2.79905 16.0472 2.8455 17.0178 3.49802 17.0013H3.49804ZM14.999 17.0013H17C17.652 16.9861 17.652 16.0157 17 16.0012H14.9751C14.3 16.0472 14.3465 17.0178 14.999 17.0013H14.999ZM3.49804 18.9974C2.83072 18.9974 2.83072 19.9983 3.49804 19.9983H17C17.6673 19.9983 17.6673 18.9974 17 18.9974H3.49804ZM4.49804 21.9983C4.22191 21.9993 3.99895 22.2242 4 22.5003V25.4973C3.999 25.7735 4.22191 25.9982 4.49804 25.9993H9.5C10.152 25.9842 10.152 25.0138 9.5 24.9993H5V22.9983H12.999V24.9993H11.5C10.848 25.0144 10.848 25.9848 11.5 25.9993H13.501C13.7771 25.9983 14.0001 25.7735 13.999 25.4973V22.5003C14 22.2242 13.7771 21.9994 13.501 21.9983H4.49804ZM22.001 24.9993C25.1036 24.9993 26.7416 26.11 26.998 26.2913V27.0003H25.5C24.8184 26.9851 24.8184 28.0154 25.5 28.0003H25.998V29.0003H18V28.0003H23.5C24.1816 28.0154 24.1816 26.9851 23.5 27.0003H17V26.2952C17.2519 26.1168 18.8933 24.9993 22.001 24.9993Z" fill="black"/>
</svg>
