<svg width="34" height="34" viewBox="0 0 34 34" fill="none" xmlns="http://www.w3.org/2000/svg">
<path d="M26.9629 6.03755L26.9629 6.03754C24.0365 3.11096 20.1448 1.5 16 1.5C12.5185 1.5 9.23372 2.62384 6.49517 4.75117L6.49515 4.75119C6.44062 4.79354 6.43077 4.87208 6.4731 4.92656C6.5155 4.98113 6.59408 4.99093 6.6485 4.94865L6.64852 4.94864C9.34193 2.85639 12.5776 1.75 16 1.75C24.4093 1.75 31.25 8.59067 31.25 17C31.25 21.4201 29.3902 25.5235 26.1132 28.418L26.1045 28.4257L26.0955 28.4329L24.9827 29.3274L24.9734 29.3349L24.9637 29.342C22.3493 31.2454 19.2567 32.25 16 32.25C12.7431 32.25 9.65003 31.2456 7.03559 29.3422L7.02583 29.3351L7.01643 29.3275L5.9038 28.4322L5.89485 28.425L5.88624 28.4174C2.60963 25.5233 0.75 21.42 0.75 17C0.75 14.2024 1.51234 11.4672 2.95549 9.09038L2.95551 9.09034C2.9913 9.0314 2.97263 8.95467 2.91374 8.91875C2.85443 8.88277 2.77758 8.90175 2.74182 8.96063C1.27557 11.3755 0.5 14.1554 0.5 17C0.5 25.542 7.4082 32.5 16 32.5C24.57 32.5 31.5 25.5633 31.5 17C31.5 12.8555 29.8892 8.96402 26.9629 6.03755Z" stroke="black"/>
<path d="M4.625 7.25C4.27982 7.25 4 6.97018 4 6.625C4 6.27982 4.27982 6 4.625 6C4.97018 6 5.25 6.27982 5.25 6.625C5.25 6.97018 4.97018 7.25 4.625 7.25Z" fill="black"/>
<path d="M16.0006 9.47058C13.6476 9.47058 11.7653 11.3529 11.7653 13.7059V15.5882C10.9653 15.5882 10.3535 16.2 10.3535 17V23.1176C10.3535 23.9176 10.9653 24.5294 11.7653 24.5294H20.2359C21.0359 24.5294 21.6476 23.9176 21.6476 23.1176V17C21.6476 16.2 21.0359 15.5882 20.2359 15.5882V13.7059C20.2359 11.3529 18.3535 9.47058 16.0006 9.47058ZM20.7065 17V23.1176C20.7065 23.4 20.5182 23.5882 20.2359 23.5882H11.7653C11.4829 23.5882 11.2947 23.4 11.2947 23.1176V17C11.2947 16.7176 11.4829 16.5294 11.7653 16.5294H12.2359H19.7653H20.2359C20.5182 16.5294 20.7065 16.7176 20.7065 17ZM12.7065 15.5882V13.7059C12.7065 11.8706 14.1653 10.4118 16.0006 10.4118C17.8359 10.4118 19.2947 11.8706 19.2947 13.7059V15.5882H12.7065Z" fill="black"/>
<path d="M15.9997 17.9412C15.1997 17.9412 14.5879 18.5529 14.5879 19.3529C14.5879 19.9647 14.9644 20.4823 15.5291 20.6706V21.7059C15.5291 21.9882 15.7173 22.1765 15.9997 22.1765C16.282 22.1765 16.4702 21.9882 16.4702 21.7059V20.6706C17.035 20.4823 17.4114 19.9647 17.4114 19.3529C17.4114 18.5529 16.7997 17.9412 15.9997 17.9412ZM15.9997 19.8235C15.7173 19.8235 15.5291 19.6353 15.5291 19.3529C15.5291 19.0706 15.7173 18.8823 15.9997 18.8823C16.282 18.8823 16.4702 19.0706 16.4702 19.3529C16.4702 19.6353 16.282 19.8235 15.9997 19.8235Z" fill="black"/>
</svg>
