<svg width="48" height="48" viewBox="0 0 48 48" fill="none" xmlns="http://www.w3.org/2000/svg">
<g clip-path="url(#clip0_125_2428)">
<path d="M38.2111 8.378L38.2111 8.37799C34.041 4.20767 28.4946 1.91174 22.5885 1.91174C17.6279 1.91174 12.9461 3.51346 9.04364 6.54493L9.04361 6.54495C8.87683 6.67449 8.84668 6.91473 8.97619 7.08143C9.10578 7.24824 9.34607 7.27836 9.51271 7.1489L9.81946 7.54374L9.51273 7.14888C13.2789 4.2233 17.8024 2.67645 22.5885 2.67645C34.3468 2.67645 43.9121 12.2417 43.9121 24C43.9121 30.1811 41.3117 35.918 36.7297 39.9652L36.721 39.9729L36.7119 39.9801L35.141 41.243L35.1317 41.2505L35.122 41.2575C31.4665 43.919 27.1429 45.3235 22.5885 45.3235C18.0338 45.3235 13.7096 43.9192 10.0541 41.2578L10.0443 41.2507L10.0349 41.2431L8.46413 39.9792L8.45518 39.972L8.44657 39.9644C3.86506 35.9176 1.26499 30.181 1.26499 24C1.26499 20.0879 2.33104 16.2634 4.34872 12.9403L4.34874 12.9403C4.45832 12.7598 4.40097 12.5248 4.22058 12.4151C4.03973 12.3054 3.80462 12.3631 3.69511 12.5434C1.60542 15.9851 0.500286 19.9466 0.500286 24C0.500286 36.1725 10.3448 46.0882 22.5885 46.0882C34.8011 46.0882 44.6768 36.203 44.6768 24C44.6768 18.0944 42.3811 12.5482 38.2111 8.378Z" stroke="black"/>
<path d="M6.52976 10.2353C6.04245 10.2353 5.6474 9.84024 5.6474 9.35293C5.6474 8.86562 6.04245 8.47058 6.52976 8.47058C7.01707 8.47058 7.41211 8.86562 7.41211 9.35293C7.41211 9.84024 7.01707 10.2353 6.52976 10.2353Z" fill="black"/>
<g clip-path="url(#clip1_125_2428)">
<path d="M34.2529 14.9204L32.0781 12.7454C31.0844 11.7517 29.4677 11.7517 28.474 12.7454C27.5384 13.6811 13.2483 27.9722 12.2933 28.9273C12.1916 29.029 12.1234 29.1642 12.0992 29.2964L11.0118 35.1689C10.9696 35.3966 11.0422 35.6304 11.2059 35.7942C11.3698 35.9581 11.6037 36.0305 11.8311 35.9884L17.7031 34.9008C17.8388 34.8755 17.9722 34.8067 18.0722 34.7066L34.2529 18.5247C35.2489 17.5287 35.249 15.9165 34.2529 14.9204ZM12.5807 34.4193L13.2385 30.8669L16.1328 33.7614L12.5807 34.4193ZM17.5751 33.215L13.7848 29.4245L27.6228 15.5855L31.413 19.376L17.5751 33.215ZM33.2585 17.5304L32.4073 18.3817L28.6171 14.5911L29.4683 13.7398C29.9136 13.2944 30.6383 13.2944 31.0837 13.7398L33.2585 15.9148C33.705 16.3613 33.705 17.0838 33.2585 17.5304Z" fill="black"/>
</g>
</g>
<defs>
<clipPath id="clip0_125_2428">
<rect width="48" height="48" fill="white"/>
</clipPath>
<clipPath id="clip1_125_2428">
<rect width="24" height="24" fill="white" transform="translate(11 12)"/>
</clipPath>
</defs>
</svg>
