<svg width="34" height="45" viewBox="0 0 34 45" fill="none" xmlns="http://www.w3.org/2000/svg">
<path d="M32.4739 36.0557C32.0856 36.0557 31.7708 36.3475 31.7708 36.7075V42.8362C31.7708 43.0346 31.5966 43.1961 31.3826 43.1961H27.6028V30.3592C27.6028 29.9992 27.288 29.7073 26.8997 29.7073C26.5114 29.7073 26.1966 29.9992 26.1966 30.3592V43.1962H18.5855L20.7927 40.9451C21.0338 40.6992 21.1475 40.3488 21.0968 40.0076C21.0958 40.001 21.0947 39.9944 21.0935 39.9878L18.9913 28.4745L19.5577 27.6841C19.8708 27.8903 20.112 28.0888 20.5644 28.0888C21.0245 28.0888 21.4547 27.85 21.6664 27.457V27.4569L23.8836 23.3372L28.9345 25.1507C29.1172 25.2233 31.7706 26.3311 31.7706 29.2563V33.6655C31.7705 34.0254 32.0853 34.3173 32.4737 34.3173C32.862 34.3173 33.1768 34.0255 33.1768 33.6655V29.2563C33.1768 25.4022 29.6172 24.0012 29.4657 23.9434C29.4613 23.9417 29.4568 23.94 29.4523 23.9385L21.046 20.9203V19.0925C22.3811 18.1298 23.3069 16.7028 23.5393 15.0747C24.2051 15.0313 24.8228 14.8008 25.3272 14.3986C25.986 13.8734 26.364 13.109 26.364 12.3017C26.364 11.6318 26.1033 10.9921 25.6387 10.4937V8.07892C25.6386 3.62423 21.7294 0 16.9243 0C12.1193 0 8.21009 3.62423 8.21009 8.07892V10.5569C7.74049 11.0503 7.48512 11.6577 7.48512 12.3016C7.48512 13.1092 7.86293 13.8735 8.5219 14.3988C9.02599 14.8008 9.64334 15.031 10.3089 15.0745C10.5431 16.7331 11.4959 18.2134 12.9448 19.189V20.9203L4.54755 23.9384C4.54315 23.94 4.53874 23.9416 4.53434 23.9433C4.38274 24.0011 0.823242 25.402 0.823242 29.2561V42.836C0.823242 43.7534 1.62827 44.4997 2.6178 44.4997H9.3169C9.70521 44.4997 10.02 44.2079 10.02 43.8479C10.02 43.4879 9.70521 43.196 9.3169 43.196H7.80405V30.3592C7.80405 29.9992 7.48924 29.7073 7.10093 29.7073C6.71262 29.7073 6.3978 29.9992 6.3978 30.3592V43.1962H2.6179C2.40387 43.1962 2.22968 43.0347 2.22968 42.8363V29.2562C2.22968 26.3212 4.9009 25.2159 5.06496 25.1509L10.1119 23.337L12.3293 27.4569C12.5414 27.8509 12.9722 28.0888 13.4314 28.0888C13.8815 28.0888 14.1204 27.8933 14.4381 27.6841L15.0044 28.4745L12.9025 39.9879C12.9012 39.9944 12.9002 40.0009 12.8992 40.0075C12.8484 40.3485 12.9621 40.6991 13.2033 40.9452L15.4105 43.1963H12.5984C12.2101 43.1963 11.8953 43.4881 11.8953 43.8481C11.8953 44.2081 12.2101 44.5 12.5984 44.5H31.3826C32.3722 44.5 33.1772 43.7536 33.1772 42.8363V36.7076C33.177 36.3475 32.8622 36.0557 32.4739 36.0557ZM22.5665 22.8644L20.4994 26.7051C20.448 26.6713 19.3526 25.9498 18.0134 25.0682C18.5945 24.4032 17.9147 25.1811 20.5667 22.1464L22.5665 22.8644ZM18.4104 26.9288L17.8743 27.6769H16.1209L15.5848 26.9288L16.9977 25.9986L18.4104 26.9288ZM14.351 21.1306V19.9107C15.2052 20.2299 16.1182 20.378 17.0097 20.378C17.9316 20.378 18.8356 20.1958 19.6396 19.8699V21.1359L16.9977 24.1592L14.351 21.1306ZM24.9577 12.3017C24.9576 12.7287 24.7581 13.1328 24.4103 13.4101C24.1803 13.5935 23.9025 13.7108 23.5983 13.7567V10.847C24.4064 10.9687 24.9577 11.5902 24.9577 12.3017ZM10.2507 13.7567C9.43343 13.6337 8.89137 13.0072 8.89137 12.3016C8.89137 11.6048 9.51452 11.0376 10.2507 10.8798V13.7567ZM10.2885 9.55151C10.0646 9.57532 9.80787 9.63156 9.61652 9.69187V8.07892C9.61652 4.3431 12.8948 1.3038 16.9244 1.3038C20.9541 1.3038 24.2323 4.3431 24.2323 8.07892V9.64711C24.028 9.58949 23.816 9.55142 23.5984 9.53352C23.5984 8.90452 23.6043 9.02585 21.3848 6.81363C20.9766 6.40704 20.3014 6.32187 19.7876 6.63311C17.3379 8.11664 14.3496 8.86193 11.5924 8.67837C10.9876 8.63639 10.4367 9.00569 10.2885 9.55151ZM11.6571 14.2699V10.203V9.98877C14.6922 10.1536 17.8744 9.31762 20.4451 7.79132C21.4631 8.80457 22.0143 9.33605 22.1921 9.53821C22.1921 10.0496 22.1921 13.6844 22.1921 14.2698C22.1921 16.9161 19.8646 19.0741 17.0098 19.0741C13.8041 19.0742 11.6571 16.7687 11.6571 14.2699ZM13.496 26.7051L11.4289 22.8644L13.4251 22.1476L15.979 25.0701C14.6802 25.9251 13.6138 26.6275 13.496 26.7051ZM14.3027 40.1284L16.3379 28.9805H17.6571L19.6923 40.1284L16.9976 42.8769L14.3027 40.1284Z" fill="#4C4C4C"/>
</svg>
