<svg width="32" height="32" viewBox="0 0 32 32" fill="none" xmlns="http://www.w3.org/2000/svg">
<g clip-path="url(#clip0_159_4030)">
<path d="M9.22043 13.6693H29.8132C30.4172 13.6693 30.9619 13.9156 31.3577 14.3111V14.3148C31.7532 14.7106 31.9997 15.2553 31.9997 15.8556V29.8133C31.9997 30.4133 31.7532 30.9618 31.3577 31.3573C30.9619 31.7533 30.4172 31.9993 29.8132 31.9993H9.22043C8.62018 31.9993 8.07168 31.7533 7.67618 31.3573C7.28043 30.9618 7.03418 30.4168 7.03418 29.8133V15.8556C7.03418 15.2553 7.28043 14.7068 7.67618 14.3111C8.07193 13.9156 8.62018 13.6693 9.22043 13.6693ZM29.8132 14.6688H9.22043C8.89418 14.6688 8.59918 14.8041 8.38418 15.0191C8.16893 15.2343 8.03368 15.5293 8.03368 15.8556V29.8133C8.03368 30.1396 8.16893 30.4378 8.38418 30.6531C8.59893 30.8678 8.89418 30.9998 9.22043 30.9998H29.8132C30.1394 30.9998 30.4377 30.8681 30.6529 30.6531C30.8679 30.4378 31.0002 30.1393 31.0002 29.8133V15.8556C31.0002 15.5293 30.8682 15.2311 30.6529 15.0158V15.0193C30.4377 14.8043 30.1394 14.6688 29.8132 14.6688Z" fill="black"/>
<path d="M15.3419 9.50146H23.6949C24.1704 9.50146 24.6074 9.69572 24.9199 10.0115C25.2322 10.3272 25.4302 10.7612 25.4302 11.2365V14.1687V14.6685H24.9302H22.8204H22.3209V14.1687V12.545H16.7162V14.169V14.6687H16.2162H14.1064H13.6067V14.169V11.2365C13.6067 10.7612 13.8009 10.3237 14.1132 10.0115C14.4289 9.69572 14.8632 9.50146 15.3419 9.50146ZM23.6947 10.501H15.3419C15.1404 10.501 14.9567 10.584 14.8212 10.7195C14.6894 10.8515 14.6064 11.0352 14.6064 11.2365V13.669H15.7167V12.045V11.5455H16.2164H22.8204H23.3204V12.045V13.6692H24.4307V11.2367C24.4307 11.0352 24.3474 10.8515 24.2157 10.7197H24.2119C24.0799 10.5842 23.8962 10.501 23.6947 10.501Z" fill="black"/>
<path d="M5.521 27.1237C5.79525 27.1237 6.02075 27.3455 6.02075 27.6232C6.02075 27.8972 5.79525 28.1227 5.521 28.1227H1.49925C1.08975 28.1227 0.715 27.9527 0.44075 27.6822V27.6787C0.17 27.408 0 27.0335 0 26.6202V1.499C0 1.0895 0.17 0.71475 0.44075 0.44075C0.71125 0.17 1.086 0 1.49925 0H15.557C15.7723 0 15.9735 0.04175 16.1613 0.125C16.3453 0.20825 16.5118 0.3295 16.661 0.48575V0.48925V0.48575L20.4333 4.52175C20.4435 4.53225 20.4505 4.5425 20.461 4.553C20.582 4.68825 20.669 4.83775 20.7315 4.99375C20.794 5.164 20.8288 5.34425 20.8288 5.53525V7.98525C20.8288 8.26275 20.6033 8.485 20.329 8.485C20.0515 8.485 19.8258 8.26275 19.8258 7.98525V5.53525C19.8258 5.46575 19.819 5.4035 19.798 5.34775C19.7773 5.30275 19.753 5.261 19.7218 5.21925C19.7148 5.2125 19.7075 5.209 19.7008 5.202L15.932 1.166C15.8798 1.1105 15.821 1.06875 15.7585 1.0375C15.6998 1.01325 15.6338 0.9995 15.5573 0.9995H1.49925C1.364 0.9995 1.239 1.055 1.14875 1.14875L1.14525 1.14525C1.055 1.23525 0.9995 1.36375 0.9995 1.499V26.6202C0.9995 26.759 1.055 26.884 1.14525 26.9742L1.14875 26.9777C1.239 27.0647 1.36375 27.1237 1.49925 27.1237H5.521Z" fill="black"/>
<path d="M17.7054 22.779L9.13043 21.151C8.55093 21.0435 8.01618 20.7902 7.63143 20.405C7.26318 20.0372 7.03418 19.555 7.03418 18.9752H8.03368C8.03368 19.2702 8.15193 19.5132 8.33918 19.7007C8.57868 19.9365 8.92918 20.0997 9.31443 20.1725L17.8894 21.8L17.7054 22.779ZM31.9994 18.9752C31.9994 19.5547 31.7704 20.0337 31.4024 20.4015V20.405C31.0172 20.7902 30.4829 21.0437 29.9069 21.151L21.3317 22.7925L21.1444 21.814L29.7194 20.1725C30.1082 20.0962 30.4587 19.9367 30.6979 19.7007C30.8854 19.5132 30.9999 19.27 30.9999 18.9752H31.9994Z" fill="black"/>
<path d="M12.7361 4.46606C13.0136 4.46606 13.2359 4.68831 13.2359 4.96581C13.2359 5.24006 13.0136 5.46556 12.7361 5.46556H5.76112C5.48337 5.46556 5.26112 5.24006 5.26112 4.96581C5.26112 4.68831 5.48337 4.46606 5.76112 4.46606H12.7361ZM3.38012 4.46606C3.65787 4.46606 3.88362 4.68831 3.88362 4.96581C3.88362 5.24006 3.65812 5.46556 3.38012 5.46556H3.00562C2.73112 5.46556 2.50562 5.24006 2.50562 4.96581C2.50562 4.68831 2.73112 4.46606 3.00562 4.46606H3.38012Z" fill="black"/>
<path d="M9.44962 9.00171C9.72387 9.00171 9.94937 9.22696 9.94937 9.50146C9.94937 9.77896 9.72387 10.001 9.44962 10.001H5.76087C5.48337 10.001 5.26112 9.77896 5.26112 9.50146C5.26112 9.22721 5.48337 9.00171 5.76087 9.00171H9.44962ZM3.38037 9.00171C3.65787 9.00171 3.88362 9.22696 3.88362 9.50146C3.88362 9.77896 3.65812 10.001 3.38037 10.001H3.00562C2.73137 10.001 2.50562 9.77896 2.50562 9.50146C2.50562 9.22721 2.73112 9.00171 3.00562 9.00171H3.38037Z" fill="black"/>
<path d="M12.7361 6.73547C13.0136 6.73547 13.2359 6.95772 13.2359 7.23522C13.2359 7.50922 13.0136 7.73497 12.7361 7.73497H5.76112C5.48337 7.73497 5.26112 7.50947 5.26112 7.23522C5.26112 6.95772 5.48337 6.73547 5.76112 6.73547H12.7361ZM3.38012 6.73547C3.65787 6.73547 3.88362 6.95772 3.88362 7.23522C3.88362 7.50922 3.65812 7.73497 3.38012 7.73497H3.00562C2.73112 7.73497 2.50562 7.50947 2.50562 7.23522C2.50562 6.95772 2.73112 6.73547 3.00562 6.73547H3.38012Z" fill="black"/>
<path d="M16.0704 0.18375L20.6196 5.122C20.8036 5.32325 20.7934 5.639 20.5884 5.82625C20.4946 5.913 20.3736 5.95825 20.2519 5.95825H17.1184C16.5841 5.95825 16.1016 5.7395 15.7511 5.38925C15.7409 5.37875 15.7301 5.3685 15.7199 5.358C15.3866 5.01075 15.1819 4.539 15.1819 4.02175V0.49975C15.1819 0.2255 15.4041 0 15.6819 0C15.8376 0 15.9766 0.07275 16.0704 0.18375ZM19.1139 4.959L16.1814 1.78V4.022C16.1814 4.27175 16.2786 4.49725 16.4349 4.66375C16.4416 4.67075 16.4489 4.67775 16.4559 4.68475C16.6259 4.85475 16.8616 4.95875 17.1184 4.95875L19.1139 4.959Z" fill="black"/>
<path d="M22.723 2.69282C22.6675 2.96332 22.404 3.13682 22.1332 3.07807C21.8625 3.02232 21.689 2.75882 21.7445 2.49132L21.9355 1.58207L22.1852 0.398823C22.2337 0.163073 22.442 -0.000427246 22.6745 -0.000427246H23.549H24.4235C24.6767 -0.000427246 24.8852 0.187073 24.9197 0.433323L25.2875 2.18232C25.5442 2.25532 25.7942 2.34207 26.037 2.44257C26.2835 2.54332 26.5227 2.66132 26.7517 2.78982L28.2822 1.79032C28.48 1.66182 28.7402 1.69307 28.9032 1.85632H28.907L29.5247 2.47407C29.5315 2.48457 29.542 2.49157 29.5492 2.50182L30.1425 3.09532C30.3157 3.26532 30.3335 3.53607 30.1982 3.73032L29.209 5.24657C29.3407 5.47582 29.4555 5.71507 29.5595 5.96157C29.6567 6.20432 29.7435 6.45432 29.8162 6.71107L31.6 7.08932C31.8465 7.13782 32.013 7.36007 31.9992 7.60282V8.45007V9.32457C31.9992 9.57782 31.812 9.78957 31.5655 9.82082L29.8165 10.1886C29.7437 10.4488 29.6567 10.6988 29.5597 10.9381C29.414 11.2886 29.2405 11.6216 29.0427 11.9308C28.8972 12.1666 28.5882 12.2361 28.3522 12.0868C28.1197 11.9376 28.0505 11.6288 28.1995 11.3961C28.3697 11.1291 28.5155 10.8478 28.637 10.5566C28.755 10.2718 28.8485 9.98032 28.918 9.68207C28.9492 9.48432 29.1017 9.32107 29.3067 9.27607L30.9997 8.92207V8.45007H31.0032V7.98157L29.3062 7.62407C29.1225 7.58607 28.9662 7.44357 28.921 7.24582C28.855 6.93707 28.758 6.63857 28.6365 6.34382C28.515 6.05232 28.3692 5.77107 28.199 5.50407C28.0985 5.34432 28.095 5.13607 28.2025 4.96607L29.1502 3.51557L28.8445 3.20682C28.8342 3.20007 28.8275 3.19282 28.8167 3.18232L28.4837 2.84932L27.0642 3.77582C26.9012 3.90057 26.6755 3.91457 26.4955 3.80007C26.2282 3.63007 25.9472 3.48432 25.6557 3.36282C25.371 3.24482 25.0762 3.15107 24.7777 3.08182C24.5835 3.05057 24.4167 2.90132 24.3752 2.69307L24.0172 0.999323H23.549H23.0767L22.9137 1.78357L22.723 2.69282ZM23.549 5.35457C23.2712 5.35457 23.049 5.13232 23.049 4.85482C23.049 4.57732 23.2712 4.35507 23.549 4.35507C24.68 4.35507 25.7037 4.81332 26.4465 5.55582C27.1857 6.29507 27.6437 7.31882 27.6437 8.45007C27.6437 8.74857 27.6125 9.04357 27.55 9.32457C27.4875 9.61232 27.3937 9.89032 27.2727 10.1573C27.158 10.4073 26.863 10.5183 26.6097 10.4038C26.36 10.2891 26.2522 9.99407 26.367 9.74432C26.457 9.55007 26.5265 9.33832 26.575 9.11607C26.6202 8.90107 26.6445 8.67882 26.6445 8.44982C26.6445 7.59607 26.2975 6.82207 25.7387 6.26007C25.1765 5.70182 24.4025 5.35457 23.549 5.35457Z" fill="black"/>
<path d="M17.8685 18.9895H21.1685C21.429 18.9895 21.6647 19.097 21.835 19.2668L21.8385 19.2703C22.0087 19.4408 22.116 19.68 22.116 19.9403V23.598C22.116 24.3128 21.8247 24.9618 21.3525 25.4335C20.8842 25.9058 20.2317 26.1973 19.5167 26.1973C18.8017 26.1973 18.1527 25.9058 17.681 25.4335C17.2122 24.9618 16.9172 24.313 16.9172 23.598V19.9403C16.9172 19.68 17.025 19.4403 17.1985 19.2703V19.2668C17.372 19.097 17.6082 18.9895 17.8685 18.9895ZM21.1167 19.989H17.9205V23.598C17.9205 24.035 18.0975 24.4378 18.389 24.726C18.6805 25.0175 19.0797 25.1978 19.5167 25.1978C19.9577 25.1978 20.3565 25.0175 20.648 24.726C20.936 24.438 21.1167 24.035 21.1167 23.598V19.989Z" fill="black"/>
<path d="M19.5168 24.0315C19.7928 24.0315 20.0166 23.8077 20.0166 23.5317C20.0166 23.2557 19.7928 23.032 19.5168 23.032C19.2408 23.032 19.0171 23.2557 19.0171 23.5317C19.0171 23.8077 19.2408 24.0315 19.5168 24.0315Z" fill="black"/>
</g>
<defs>
<clipPath id="clip0_159_4030">
<rect width="32" height="32" fill="white"/>
</clipPath>
</defs>
</svg>
