<svg width="22" height="22" viewBox="0 0 22 22" fill="none" xmlns="http://www.w3.org/2000/svg">
<path d="M21.7642 20.8031L16.0912 15.2138C17.5768 13.5978 18.4896 11.4606 18.4896 9.10875C18.4888 4.07781 14.3501 0 9.24442 0C4.13869 0 0 4.07781 0 9.10875C0 14.1397 4.13869 18.2175 9.24442 18.2175C11.4504 18.2175 13.4738 17.4535 15.0631 16.1834L20.7581 21.7947C21.0355 22.0684 21.4861 22.0684 21.7635 21.7947C22.0417 21.521 22.0417 21.0768 21.7642 20.8031ZM9.24442 16.8161C4.92442 16.8161 1.42238 13.3654 1.42238 9.10875C1.42238 4.85211 4.92442 1.40143 9.24442 1.40143C13.5645 1.40143 17.0665 4.85211 17.0665 9.10875C17.0665 13.3654 13.5645 16.8161 9.24442 16.8161Z" fill="#B6B6B6"/>
</svg>
