<svg width="48" height="48" viewBox="0 0 48 48" fill="none" xmlns="http://www.w3.org/2000/svg">
<path d="M4.34872 12.9403L4.34874 12.9403C4.45832 12.7598 4.40097 12.5248 4.22058 12.4151C4.03972 12.3054 3.80462 12.3631 3.69511 12.5434C1.60542 15.9851 0.500282 19.9466 0.500282 24C0.500282 36.1725 10.3448 46.0882 22.5885 46.0882C34.8011 46.0882 44.6768 36.203 44.6768 24C44.6768 18.0944 42.3811 12.5482 38.2111 8.378L38.2111 8.37799C34.041 4.20767 28.4946 1.91174 22.5885 1.91174C17.6279 1.91174 12.9461 3.51346 9.04363 6.54493L9.04361 6.54495C8.87683 6.67448 8.84668 6.91472 8.97619 7.08143C9.10578 7.24824 9.34606 7.27836 9.51271 7.1489L9.81946 7.54374L9.51273 7.14888C13.2789 4.2233 17.8024 2.67645 22.5885 2.67645C34.3468 2.67645 43.9121 12.2417 43.9121 24C43.9121 30.1811 41.3117 35.918 36.7297 39.9652L36.721 39.9729L36.7119 39.9801L35.141 41.243L35.1317 41.2505L35.122 41.2575C31.4665 43.919 27.1429 45.3235 22.5885 45.3235C18.0338 45.3235 13.7096 43.9192 10.0541 41.2578L10.0443 41.2507L10.0349 41.2431L8.46413 39.9792L8.45518 39.972L8.44657 39.9644C3.86506 35.9176 1.26499 30.181 1.26499 24C1.26499 20.0879 2.33104 16.2634 4.34872 12.9403Z" stroke="black"/>
<path d="M6.52976 10.2353C6.04245 10.2353 5.6474 9.84024 5.6474 9.35293C5.6474 8.86562 6.04245 8.47058 6.52976 8.47058C7.01707 8.47058 7.41211 8.86562 7.41211 9.35293C7.41211 9.84024 7.01707 10.2353 6.52976 10.2353Z" fill="black"/>
<g clip-path="url(#clip0_125_2438)">
<path d="M31.5547 13.3767H27.5995V12.0634C27.5986 11.6241 27.4316 11.203 27.135 10.8923C26.8385 10.5816 26.4365 10.4067 26.0171 10.4058H19.6985C19.2789 10.4063 18.8765 10.5811 18.5797 10.8918C18.2828 11.2025 18.1157 11.6238 18.1148 12.0634V13.3767H14.1596C13.7607 13.3772 13.3784 13.5434 13.0964 13.8388C12.8143 14.1343 12.6557 14.5349 12.6553 14.9527V16.656C12.6558 17.0738 12.8144 17.4743 13.0964 17.7697C13.3784 18.0652 13.7608 18.2314 14.1596 18.2319H14.1793V35.402C14.1799 35.9836 14.4006 36.5411 14.7931 36.9524C15.1856 37.3636 15.7178 37.5949 16.2729 37.5956H29.4413C29.9964 37.5949 30.5286 37.3636 30.9211 36.9524C31.3136 36.5411 31.5344 35.9836 31.535 35.402V18.2319H31.5547C31.9534 18.2314 32.3357 18.0652 32.6177 17.7697C32.8997 17.4743 33.0582 17.0738 33.0587 16.656V14.9527C33.0583 14.5349 32.8997 14.1343 32.6178 13.8388C32.3358 13.5434 31.9535 13.3772 31.5547 13.3767V13.3767ZM19.0864 12.0634C19.0869 11.8936 19.1516 11.731 19.2663 11.6111C19.381 11.4912 19.5364 11.4238 19.6985 11.4236H26.0158C26.1776 11.4242 26.3326 11.4917 26.447 11.6116C26.5615 11.7315 26.626 11.8939 26.6265 12.0634V13.3767H19.0864V12.0634ZM30.5634 35.402C30.5631 35.7137 30.4448 36.0125 30.2344 36.233C30.0241 36.4534 29.7388 36.5774 29.4413 36.5778H16.2729C15.9754 36.5774 15.6902 36.4534 15.4798 36.233C15.2695 36.0125 15.1512 35.7137 15.1509 35.402V18.2319H30.5634V35.402ZM32.0871 16.656C32.087 16.8039 32.0309 16.9458 31.9311 17.0504C31.8313 17.1551 31.6959 17.2139 31.5547 17.2141H14.1596C14.0183 17.2139 13.8829 17.1551 13.7831 17.0504C13.6832 16.9458 13.627 16.804 13.6269 16.656V14.9527C13.627 14.8047 13.6832 14.6629 13.7831 14.5582C13.8829 14.4536 14.0183 14.3948 14.1596 14.3946H31.5547C31.6959 14.3948 31.8313 14.4536 31.9311 14.5582C32.0309 14.6629 32.087 14.8047 32.0871 14.9527V16.656Z" fill="black"/>
<path d="M22.8579 33.1726C22.9217 33.1726 22.9849 33.1595 23.0438 33.1339C23.1028 33.1084 23.1563 33.0709 23.2015 33.0236C23.2466 32.9764 23.2824 32.9202 23.3068 32.8585C23.3312 32.7967 23.3437 32.7305 23.3437 32.6637V22.146C23.3437 22.011 23.2925 21.8816 23.2014 21.7861C23.1103 21.6907 22.9867 21.6371 22.8579 21.6371C22.729 21.6371 22.6055 21.6907 22.5144 21.7861C22.4233 21.8816 22.3721 22.011 22.3721 22.146V32.6637C22.3721 32.7987 22.4233 32.9281 22.5144 33.0235C22.6055 33.119 22.729 33.1726 22.8579 33.1726Z" fill="black"/>
<path d="M27.1137 33.1726C27.2426 33.1726 27.3661 33.119 27.4572 33.0235C27.5483 32.9281 27.5995 32.7987 27.5995 32.6637V22.146C27.5995 22.011 27.5483 21.8816 27.4572 21.7861C27.3661 21.6907 27.2426 21.6371 27.1137 21.6371C26.9849 21.6371 26.8613 21.6907 26.7702 21.7861C26.6791 21.8816 26.6279 22.011 26.6279 22.146V32.6637C26.6279 32.7987 26.6791 32.9281 26.7702 33.0235C26.8613 33.119 26.9849 33.1726 27.1137 33.1726Z" fill="black"/>
<path d="M18.601 33.1726C18.7299 33.1726 18.8534 33.119 18.9445 33.0235C19.0356 32.9281 19.0868 32.7987 19.0868 32.6637V22.146C19.0868 22.011 19.0356 21.8816 18.9445 21.7861C18.8534 21.6907 18.7299 21.6371 18.601 21.6371C18.4722 21.6371 18.3486 21.6907 18.2575 21.7861C18.1664 21.8816 18.1152 22.011 18.1152 22.146V32.6637C18.1152 32.7987 18.1664 32.9281 18.2575 33.0235C18.3486 33.119 18.4722 33.1726 18.601 33.1726Z" fill="black"/>
</g>
<defs>
<clipPath id="clip0_125_2438">
<rect width="20.5714" height="27.4286" fill="white" transform="translate(12.5713 10.2857)"/>
</clipPath>
</defs>
</svg>
