<svg width="32" height="32" viewBox="0 0 32 32" fill="none" xmlns="http://www.w3.org/2000/svg">
<path d="M21.625 12.25C21.625 15.3516 19.1016 17.875 16 17.875C12.8984 17.875 10.375 15.3516 10.375 12.25C10.375 9.14838 12.8984 6.625 16 6.625C19.1016 6.625 21.625 9.14838 21.625 12.25ZM11.625 12.25C11.625 14.6624 13.5876 16.625 16 16.625C18.4124 16.625 20.375 14.6624 20.375 12.25C20.375 9.83763 18.4124 7.875 16 7.875C13.5876 7.875 11.625 9.83763 11.625 12.25Z" fill="black"/>
<path d="M4.5 6.375C4.15482 6.375 3.875 6.09518 3.875 5.75C3.875 5.40482 4.15482 5.125 4.5 5.125C4.84518 5.125 5.125 5.40482 5.125 5.75C5.125 6.09518 4.84518 6.375 4.5 6.375Z" fill="black"/>
<path d="M16 32C7.131 32 0 24.8171 0 16C0 13.0644 0.800375 10.1947 2.31444 7.70113C2.49356 7.40613 2.87788 7.31219 3.17306 7.49125C3.46813 7.67044 3.56206 8.05481 3.38288 8.34988C1.98756 10.6479 1.25 13.2933 1.25 16C1.25 20.2768 3.04819 24.2435 6.21725 27.0427C7.182 22.4921 11.217 19.125 16 19.125C20.783 19.125 24.8184 22.4925 25.7822 27.0432C28.9516 24.2437 30.75 20.2768 30.75 16C30.75 7.86681 24.1332 1.25 16 1.25C12.6882 1.25 9.56056 2.31969 6.95525 4.3435C6.68269 4.55525 6.29 4.50588 6.07825 4.23331C5.8665 3.96075 5.91581 3.56806 6.18844 3.35631C9.01506 1.16056 12.4079 0 16 0C20.2773 0 24.2961 1.6635 27.3164 4.684C30.3367 7.70438 32 11.7231 32 16C32 24.8393 24.8463 32 16 32ZM16 20.375C11.5814 20.375 7.91369 23.6025 7.32988 27.9379C9.85831 29.7787 12.8482 30.75 16 30.75C19.1515 30.75 22.141 29.7786 24.6694 27.9377C24.0864 23.6024 20.4191 20.375 16 20.375Z" fill="black"/>
</svg>
