<svg width="37" height="37" viewBox="0 0 37 37" fill="none" xmlns="http://www.w3.org/2000/svg">
<path d="M29.8989 26.2366C31.4373 26.2205 32.7825 25.1814 33.1771 23.6913L36.9709 9.5634C37.0917 9.10429 36.8259 8.63712 36.3668 8.50824C36.2943 8.49213 36.2218 8.47602 36.1493 8.47602H7.61165L5.67048 1.30737C5.57382 0.936855 5.23553 0.671051 4.84891 0.671051H0V2.3867H4.17231L6.04905 9.39425C6.041 9.45064 6.041 9.50702 6.04905 9.5634L9.91529 23.7396C9.93945 23.8524 9.97972 23.9732 10.02 24.086L11.3249 28.8382C10.0683 29.5068 9.21453 30.8277 9.21453 32.3501C9.21453 34.549 10.9946 36.3291 13.1935 36.3291C15.3925 36.3291 17.1725 34.549 17.1725 32.3501C17.1725 31.6654 16.9953 31.013 16.6893 30.4492C16.6168 30.3203 16.5443 30.1914 16.4557 30.0625H26.5804C26.1293 30.7069 25.8555 31.4963 25.8555 32.3501C25.8555 34.549 27.6355 36.3291 29.8345 36.3291C32.0334 36.3291 33.8135 34.549 33.8135 32.3501C33.8135 31.311 33.4188 30.3686 32.7664 29.6598C32.0656 28.8624 31.0346 28.3549 29.8828 28.3469H13.0405L12.4364 26.1319C12.6941 26.1963 12.9599 26.2366 13.2258 26.2366H29.8989ZM29.8425 30.0625C31.1071 30.0625 32.13 31.0855 32.13 32.3501C32.13 33.6146 31.1071 34.6376 29.8425 34.6376C28.5779 34.6376 27.555 33.6146 27.555 32.3501C27.555 31.0855 28.5779 30.0625 29.8425 30.0625ZM13.1935 30.0625C14.4581 30.0625 15.473 31.0935 15.473 32.3501C15.473 33.6146 14.4501 34.6376 13.1855 34.6376C11.9209 34.6376 10.906 33.6146 10.906 32.3501C10.906 31.0855 11.929 30.0625 13.1935 30.0625ZM11.6631 23.4335L9.73808 16.3938L8.02244 10.2078H34.9975L31.5098 23.3047C31.3165 24.0537 30.648 24.5773 29.8747 24.5934H13.2096C12.5089 24.5531 11.8967 24.1021 11.6631 23.4335Z" fill="white"/>
</svg>
