<svg width="28" height="28" viewBox="0 0 28 28" fill="none" xmlns="http://www.w3.org/2000/svg">
<g clip-path="url(#clip0_117_1832)">
<path d="M27.8963 13.6687C27.6758 13.3478 22.3767 5.83319 13.9999 5.83319C6.81197 5.83319 0.406868 13.3047 0.137363 13.6232C-0.0457878 13.8402 -0.0457878 14.1587 0.137363 14.3768C0.406868 14.6953 6.81197 22.1668 13.9999 22.1668C21.1879 22.1668 27.5929 14.6953 27.8624 14.3768C28.0317 14.1762 28.0468 13.8857 27.8963 13.6687ZM13.9999 21.0001C8.23769 21.0001 2.7589 15.505 1.36709 14C2.75661 12.4938 8.22954 6.99991 13.9999 6.99991C20.7422 6.99991 25.5011 12.4868 26.6631 13.9685C25.3214 15.4257 19.8112 21.0001 13.9999 21.0001Z" fill="black"/>
<path d="M14.0007 9.33325C11.427 9.33325 9.33398 11.4263 9.33398 14C9.33398 16.5737 11.427 18.6667 14.0007 18.6667C16.5744 18.6667 18.6674 16.5737 18.6674 14C18.6674 11.4263 16.5744 9.33325 14.0007 9.33325ZM14.0007 17.5001C12.071 17.5001 10.5007 15.9297 10.5007 14C10.5007 12.0704 12.071 10.5 14.0007 10.5C15.9304 10.5 17.5008 12.0704 17.5008 14C17.5008 15.9297 15.9304 17.5001 14.0007 17.5001Z" fill="black"/>
</g>
<defs>
<clipPath id="clip0_117_1832">
<rect width="28" height="28" fill="white"/>
</clipPath>
</defs>
</svg>
