<svg width="340" height="53" viewBox="0 0 340 53" fill="none" xmlns="http://www.w3.org/2000/svg">
<g clip-path="url(#clip0_2_397)">
<path d="M51.1748 11.1274H0.143066V0.878525C0.143066 0.393334 0.537021 0 1.02298 0H50.2948C50.7808 0 51.1748 0.393334 51.1748 0.878525V11.1274Z" fill="#464655"/>
<path d="M50.2948 33.3819H1.02298C0.537021 33.3819 0.143066 32.9886 0.143066 32.5034V22.2545H51.1748V32.5034C51.1748 32.9886 50.7808 33.3819 50.2948 33.3819Z" fill="#FFE15A"/>
<path d="M51.1748 11.1271H0.143066V22.2536H51.1748V11.1271Z" fill="#FF4B55"/>
<path d="M93.5256 8.60974V25.5448H89.394V15.3886L85.6006 25.5448H82.2661L78.4486 15.3647V25.5448H74.317V8.60974H79.1976L83.9573 20.3338L88.6687 8.60974H93.5256Z" fill="white"/>
<path d="M107.056 22.5533H100.726L99.711 25.5448H95.3858L101.523 8.60974H106.307L112.444 25.5448H108.071L107.056 22.5533ZM105.993 19.3692L103.891 13.1694L101.813 19.3692H105.993Z" fill="white"/>
<path d="M122.955 25.5448L119.427 19.1521H118.436V25.5448H114.305V8.60974H121.239C122.576 8.60974 123.716 8.84326 124.658 9.30945C125.6 9.77592 126.305 10.4155 126.772 11.2272C127.239 12.0395 127.473 12.9442 127.473 13.9411C127.473 15.067 127.155 16.0722 126.519 16.9568C125.882 17.8413 124.944 18.4685 123.704 18.8382L127.618 25.5448H122.955V25.5448ZM118.437 16.2328H120.998C121.755 16.2328 122.322 16.048 122.701 15.678C123.079 15.3083 123.269 14.7853 123.269 14.1101C123.269 13.4671 123.079 12.9603 122.701 12.5903C122.322 12.2206 121.754 12.0354 120.998 12.0354H118.437V16.2328Z" fill="white"/>
<path d="M139.892 25.5448L134.19 18.0662V25.5448H130.058V8.60974H134.19V16.0399L139.844 8.60974H144.7L138.128 16.9081L144.942 25.5445H139.892V25.5448Z" fill="white"/>
<path d="M151.03 11.9148V15.3402H156.564V18.5246H151.03V22.2397H157.288V25.5448H146.899V8.60974H157.288V11.9148H151.03V11.9148Z" fill="white"/>
<path d="M172.171 8.60974V11.9148H167.677V25.5448H163.546V11.9148H159.051V8.60974H172.171V8.60974Z" fill="white"/>
<path d="M178.381 8.60974V25.5448H174.249V8.60974H178.381Z" fill="white"/>
<path d="M196.551 25.5448H192.419L185.509 15.0992V25.5448H181.377V8.60974H185.509L192.419 19.1034V8.60974H196.551V25.5448Z" fill="white"/>
<path d="M210.806 13.9652C210.5 13.4026 210.061 12.9724 209.489 12.6747C208.917 12.3775 208.245 12.2284 207.472 12.2284C206.134 12.2284 205.063 12.6666 204.258 13.5431C203.452 14.4199 203.05 15.5896 203.05 17.0529C203.05 18.613 203.473 19.831 204.318 20.7075C205.164 21.5843 206.328 22.0223 207.81 22.0223C208.825 22.0223 209.682 21.7649 210.383 21.25C211.084 20.7357 211.595 19.9957 211.917 19.0308H206.674V15.991H215.662V19.8267C215.356 20.8561 214.837 21.813 214.104 22.6975C213.371 23.5821 212.44 24.2979 211.313 24.8445C210.185 25.3913 208.913 25.6648 207.496 25.6648C205.82 25.6648 204.326 25.2988 203.014 24.5669C201.701 23.8352 200.678 22.8182 199.945 21.5152C199.212 20.2125 198.845 18.7253 198.845 17.0523C198.845 15.3796 199.212 13.8884 199.945 12.5773C200.678 11.2666 201.696 10.2455 203.001 9.51359C204.306 8.78191 205.796 8.41565 207.471 8.41565C209.501 8.41565 211.212 8.9066 212.606 9.88734C213.999 10.8684 214.921 12.2272 215.372 13.9641H210.806V13.9652Z" fill="white"/>
<path d="M228.516 22.5533H222.186L221.171 25.5448H216.846L222.983 8.60974H227.767L233.904 25.5448H229.531L228.516 22.5533ZM227.453 19.3692L225.351 13.1694L223.274 19.3692H227.453Z" fill="white"/>
<path d="M246.807 9.67107C248.144 10.3791 249.179 11.372 249.912 12.6505C250.644 13.929 251.011 15.4047 251.011 17.0774C251.011 18.7339 250.645 20.2053 249.912 21.4919C249.179 22.7787 248.139 23.7759 246.795 24.4834C245.45 25.1911 243.891 25.545 242.119 25.545H235.765V8.60999H242.119C243.907 8.6097 245.47 8.96358 246.807 9.67107ZM245.502 20.6957C246.372 19.8434 246.807 18.6375 246.807 17.0774C246.807 15.5176 246.372 14.303 245.502 13.4348C244.632 12.5661 243.416 12.1322 241.854 12.1322H239.897V21.9748H241.854C243.416 21.9745 244.632 21.5483 245.502 20.6957Z" fill="white"/>
<path d="M261.98 25.5448L258.453 19.1521H257.462V25.5448H253.331V8.60974H260.265C261.602 8.60974 262.742 8.84326 263.684 9.30945C264.626 9.77592 265.331 10.4155 265.798 11.2272C266.265 12.0395 266.499 12.9442 266.499 13.9411C266.499 15.067 266.18 16.0722 265.544 16.9568C264.908 17.8413 263.97 18.4685 262.729 18.8382L266.644 25.5448H261.98V25.5448ZM257.462 16.2328H260.024C260.78 16.2328 261.348 16.048 261.727 15.678C262.105 15.3083 262.295 14.7853 262.295 14.1101C262.295 13.4671 262.105 12.9603 261.727 12.5903C261.348 12.2206 260.78 12.0354 260.024 12.0354H257.462V16.2328Z" fill="white"/>
<path d="M273.216 11.9148V15.3402H278.749V18.5246H273.216V22.2397H279.473V25.5448H269.084V8.60974H279.473V11.9148H273.216V11.9148Z" fill="white"/>
<path d="M284.957 25.1105C283.975 24.7085 283.189 24.1134 282.602 23.3252C282.014 22.5377 281.704 21.5883 281.671 20.4786H286.069C286.133 21.106 286.351 21.5846 286.721 21.9137C287.091 22.2437 287.575 22.4084 288.171 22.4084C288.783 22.4084 289.266 22.2679 289.62 21.9863C289.975 21.705 290.152 21.3151 290.152 20.8164C290.152 20.3985 290.011 20.0527 289.729 19.7789C289.447 19.5056 289.101 19.2807 288.69 19.1034C288.279 18.9266 287.695 18.7256 286.938 18.5001C285.843 18.1623 284.949 17.8246 284.256 17.4868C283.564 17.1491 282.967 16.6509 282.468 15.9912C281.969 15.3321 281.719 14.4717 281.719 13.4101C281.719 11.8339 282.291 10.5994 283.435 9.70707C284.578 8.81443 286.068 8.36841 287.905 8.36841C289.773 8.36841 291.279 8.81472 292.423 9.70707C293.567 10.5994 294.178 11.8422 294.259 13.4343H289.789C289.757 12.8877 289.556 12.457 289.185 12.1437C288.814 11.8301 288.339 11.6732 287.76 11.6732C287.26 11.6732 286.857 11.8059 286.552 12.0714C286.245 12.3366 286.093 12.7187 286.093 13.2171C286.093 13.764 286.35 14.1904 286.866 14.4953C287.381 14.8011 288.187 15.1308 289.282 15.4847C290.377 15.8547 291.267 16.2083 291.952 16.5461C292.637 16.8839 293.228 17.3748 293.728 18.0178C294.227 18.6611 294.477 19.4892 294.477 20.5025C294.477 21.4674 294.231 22.3442 293.74 23.132C293.249 23.9201 292.536 24.5473 291.601 25.0135C290.667 25.4802 289.564 25.7132 288.291 25.7132C287.051 25.7135 285.94 25.5128 284.957 25.1105Z" fill="white"/>
<path d="M299.817 25.1105C298.834 24.7085 298.049 24.1134 297.461 23.3252C296.873 22.5377 296.563 21.5883 296.531 20.4786H300.928C300.993 21.106 301.21 21.5846 301.581 21.9137C301.951 22.2437 302.434 22.4084 303.03 22.4084C303.642 22.4084 304.126 22.2679 304.48 21.9863C304.834 21.705 305.012 21.3151 305.012 20.8164C305.012 20.3985 304.871 20.0527 304.589 19.7789C304.307 19.5056 303.96 19.2807 303.55 19.1034C303.139 18.9266 302.555 18.7256 301.798 18.5001C300.702 18.1623 299.809 17.8246 299.116 17.4868C298.423 17.1491 297.827 16.6509 297.328 15.9912C296.829 15.3321 296.579 14.4717 296.579 13.4101C296.579 11.8339 297.15 10.5994 298.294 9.70707C299.438 8.81443 300.928 8.36841 302.764 8.36841C304.633 8.36841 306.139 8.81472 307.282 9.70707C308.426 10.5994 309.038 11.8422 309.119 13.4343H304.649C304.616 12.8877 304.415 12.457 304.045 12.1437C303.674 11.8301 303.199 11.6732 302.619 11.6732C302.12 11.6732 301.717 11.8059 301.411 12.0714C301.105 12.3366 300.952 12.7187 300.952 13.2171C300.952 13.764 301.21 14.1904 301.726 14.4953C302.241 14.8011 303.046 15.1308 304.142 15.4847C305.237 15.8547 306.127 16.2083 306.811 16.5461C307.496 16.8839 308.088 17.3748 308.587 18.0178C309.086 18.6611 309.336 19.4892 309.336 20.5025C309.336 21.4674 309.091 22.3442 308.6 23.132C308.108 23.9201 307.395 24.5473 306.461 25.0135C305.527 25.4802 304.424 25.7132 303.151 25.7132C301.911 25.7135 300.799 25.5128 299.817 25.1105Z" fill="white"/>
<path d="M316.005 11.9148V15.3402H321.538V18.5246H316.005V22.2397H322.263V25.5448H311.874V8.60974H322.263V11.9148H316.005V11.9148Z" fill="white"/>
<path d="M340.118 25.5448H335.987L329.076 15.0992V25.5448H324.945V8.60974H329.076L335.987 19.1034V8.60974H340.118V25.5448Z" fill="white"/>
<path d="M81.4125 35.0991C82.4337 35.6151 83.215 36.3586 83.7566 37.3289C84.2979 38.2996 84.5687 39.4546 84.5687 40.7935C84.5687 42.1204 84.2979 43.2661 83.7566 44.2305C83.215 45.1951 82.4337 45.9322 81.4125 46.4419C80.3909 46.9518 79.1667 47.2067 77.7394 47.2067H73.9186V34.3251H77.7394C79.1667 34.3251 80.3909 34.5831 81.4125 35.0991ZM81.8462 44.728C82.7876 43.7882 83.2582 42.4769 83.2582 40.7935C83.2582 39.0981 82.7876 37.7744 81.8462 36.8221C80.9049 35.8702 79.5358 35.3939 77.7394 35.3939H75.2107V46.1378H77.7394C79.5358 46.1378 80.9049 45.6679 81.8462 44.728Z" fill="white"/>
<path d="M88.2418 35.3755V40.1854H93.1331V41.2542H88.2418V46.1378H93.6868V47.2067H86.9498V34.3066H93.6868V35.3755H88.2418Z" fill="white"/>
<path d="M97.4703 34.3251V42.4337C97.4703 43.7116 97.7749 44.6575 98.384 45.2717C98.9931 45.8861 99.8266 46.1931 100.885 46.1931C101.943 46.1931 102.771 45.889 103.368 45.2809C103.964 44.6727 104.263 43.7237 104.263 42.4337V34.3251H105.555V42.4152C105.555 44.0493 105.121 45.278 104.254 46.1009C103.386 46.9242 102.257 47.3357 100.867 47.3357C99.4759 47.3357 98.3471 46.9242 97.4795 46.1009C96.612 45.278 96.1783 44.0493 96.1783 42.4152V34.3251H97.4703Z" fill="white"/>
<path d="M115.983 34.3251V35.3939H112.403V47.2067H111.111V35.3939H107.511V34.3251H115.983Z" fill="white"/>
<path d="M119.702 46.8934C119.056 46.5985 118.549 46.187 118.18 45.6586C117.81 45.1305 117.613 44.5408 117.589 43.8895H118.955C119.016 44.5161 119.293 45.066 119.785 45.5389C120.277 46.0119 120.997 46.2484 121.945 46.2484C122.818 46.2484 123.511 46.0243 124.021 45.5757C124.532 45.1274 124.787 44.5593 124.787 43.8711C124.787 43.3182 124.646 42.873 124.363 42.535C124.08 42.1972 123.729 41.9453 123.311 41.7794C122.892 41.6136 122.314 41.4324 121.576 41.2358C120.714 41.0025 120.031 40.7751 119.527 40.5539C119.022 40.3328 118.592 39.989 118.235 39.5219C117.878 39.0551 117.7 38.4225 117.7 37.6238C117.7 36.9603 117.872 36.3677 118.216 35.8454C118.561 35.3234 119.047 34.9148 119.675 34.6199C120.302 34.325 121.022 34.1776 121.834 34.1776C123.028 34.1776 123.991 34.4696 124.723 35.053C125.455 35.6366 125.876 36.389 125.987 37.3105H124.584C124.498 36.7824 124.209 36.3125 123.717 35.9007C123.225 35.4892 122.56 35.2833 121.723 35.2833C120.948 35.2833 120.302 35.4892 119.785 35.9007C119.269 36.3125 119.01 36.8745 119.01 37.5869C119.01 38.1277 119.151 38.5636 119.435 38.8953C119.718 39.2271 120.071 39.479 120.496 39.6509C120.92 39.8231 121.496 40.0074 122.222 40.2038C123.058 40.4373 123.735 40.6677 124.252 40.8948C124.769 41.1223 125.206 41.4693 125.563 41.9361C125.919 42.4031 126.098 43.0297 126.098 43.8158C126.098 44.4179 125.938 44.9892 125.618 45.5296C125.298 46.0704 124.824 46.5064 124.197 46.8381C123.569 47.1698 122.818 47.3356 121.945 47.3356C121.096 47.3356 120.348 47.1882 119.702 46.8934Z" fill="white"/>
<path d="M128.83 37.3565C129.383 36.3554 130.14 35.5753 131.1 35.0161C132.059 34.4572 133.13 34.1776 134.312 34.1776C135.751 34.1776 136.984 34.5185 138.012 35.2004C139.039 35.8823 139.787 36.8437 140.255 38.0845H138.741C138.372 37.2123 137.809 36.5304 137.053 36.0389C136.295 35.5477 135.382 35.3018 134.312 35.3018C133.364 35.3018 132.512 35.5229 131.755 35.9652C130.998 36.4075 130.405 37.0433 129.974 37.8725C129.543 38.7018 129.328 39.6633 129.328 40.7566C129.328 41.8502 129.543 42.8085 129.974 43.6315C130.405 44.4547 130.998 45.0874 131.755 45.5296C132.512 45.9719 133.364 46.1931 134.312 46.1931C135.382 46.1931 136.295 45.9506 137.053 45.4651C137.809 44.9799 138.372 44.3073 138.741 43.4472H140.255C139.787 44.6759 139.036 45.6281 138.003 46.3036C136.969 46.9794 135.739 47.3172 134.311 47.3172C133.13 47.3172 132.059 47.0379 131.099 46.4787C130.14 45.9198 129.383 45.1426 128.829 44.1475C128.276 43.1523 127.998 42.0222 127.998 40.7566C127.999 39.4914 128.276 38.358 128.83 37.3565Z" fill="white"/>
<path d="M152.4 34.3251V47.2067H151.108V41.1805H144.112V47.2067H142.82V34.3251H144.112V40.1117H151.108V34.3251H152.4Z" fill="white"/>
<path d="M156.644 46.1562H161.277V47.2067H155.352V34.3251H156.644V46.1562H156.644Z" fill="white"/>
<path d="M170.598 44.1474H164.729L163.603 47.2066H162.237L166.944 34.4908H168.402L173.09 47.2066H171.725L170.598 44.1474ZM170.211 43.0786L167.664 36.1126L165.117 43.0786H170.211Z" fill="white"/>
<path d="M184.885 47.2067H183.593L176.45 36.3706V47.2067H175.158V34.3251H176.45L183.593 45.1427V34.3251H184.885V47.2067Z" fill="white"/>
<path d="M195.313 35.0991C196.334 35.6151 197.115 36.3586 197.657 37.3289C198.199 38.2996 198.469 39.4546 198.469 40.7935C198.469 42.1204 198.199 43.2661 197.657 44.2305C197.115 45.1951 196.334 45.9322 195.313 46.4419C194.291 46.9518 193.067 47.2067 191.64 47.2067H187.819V34.3251H191.64C193.067 34.3251 194.291 34.5831 195.313 35.0991ZM195.747 44.728C196.688 43.7882 197.159 42.4769 197.159 40.7935C197.159 39.0981 196.688 37.7744 195.747 36.8221C194.805 35.8702 193.436 35.3939 191.64 35.3939H189.111V46.1378H191.64C193.436 46.1378 194.805 45.6679 195.747 44.728Z" fill="white"/>
</g>
<defs>
<clipPath id="clip0_2_397">
<rect width="340" height="53" fill="white"/>
</clipPath>
</defs>
</svg>
