<svg width="284" height="63" viewBox="0 0 284 63" fill="none" xmlns="http://www.w3.org/2000/svg">
<g clip-path="url(#clip0_517_515)">
<path d="M44.6735 3.56053C44.6735 3.64528 44.7019 3.70179 44.7019 3.78654C44.7019 6.27264 44.7019 8.73049 44.7019 11.2166C44.7019 11.6121 44.7303 11.5838 44.3327 11.5838C42.8275 11.5838 41.2939 11.5838 39.7887 11.5838C28.6843 11.5838 17.6083 11.5838 6.50391 11.5838C6.50391 8.89999 6.50391 6.24439 6.50391 3.56053C6.67431 3.47578 6.84471 3.53228 6.98671 3.53228C19.3691 3.53228 31.7799 3.53228 44.1623 3.53228C44.3327 3.50403 44.5031 3.47578 44.6735 3.56053Z" fill="#DD1F26"/>
<path d="M6.47567 19.691C6.61767 19.6062 6.78807 19.6627 6.93007 19.6627C19.3409 19.6627 31.7517 19.6627 44.1625 19.6627C44.7305 19.6627 44.6453 19.6062 44.6453 20.143C44.6453 22.5161 44.6453 24.8892 44.6453 27.2623C44.6453 27.3188 44.6453 27.347 44.6453 27.4035C44.6453 27.7426 44.6737 27.7426 44.3045 27.7426C44.2477 27.7426 44.2193 27.7426 44.1625 27.7426C31.7233 27.7426 19.2841 27.7426 6.81647 27.7426C6.70287 27.7426 6.56087 27.7426 6.44727 27.7426C6.47567 25.0304 6.47567 22.3466 6.47567 19.691Z" fill="#DD1F26"/>
<path d="M284.001 24.409C283.291 24.409 282.581 24.409 281.9 24.4372C281.701 24.4372 281.644 24.3525 281.644 24.1547C281.644 23.6179 281.644 23.0529 281.644 22.5161C281.644 20.0018 281.644 17.4874 281.616 14.9448C281.616 14.6623 281.559 14.4081 281.502 14.1255C281.246 13.1933 280.65 12.6282 279.713 12.4587C278.066 12.1762 276.731 12.6565 275.737 14.182C275.567 14.4363 275.481 14.7188 275.481 15.0296C275.481 17.9677 275.481 20.9341 275.481 23.8722C275.481 23.9852 275.481 24.0982 275.481 24.1829C275.481 24.3242 275.453 24.409 275.282 24.409C274.629 24.409 273.976 24.409 273.323 24.409C273.181 24.409 273.096 24.3524 273.096 24.1829C273.096 24.0982 273.096 24.0134 273.096 23.9004C273.096 19.6628 273.096 15.3968 273.096 11.1592C273.096 11.1027 273.096 11.0462 273.096 10.9897C273.096 10.6507 273.096 10.6507 273.465 10.6507C274.005 10.6507 274.544 10.6507 275.084 10.6507C275.339 10.6507 275.396 10.7354 275.396 10.9614C275.396 11.3852 275.425 11.809 275.453 12.2327C275.623 12.261 275.652 12.148 275.708 12.0632C276.958 10.7354 278.492 10.2269 280.309 10.4246C280.707 10.4811 281.104 10.5377 281.474 10.6789C282.78 11.1309 283.49 12.0915 283.831 13.391C283.916 13.6453 283.944 13.9278 283.944 14.2103C283.973 14.2668 283.973 14.3233 283.973 14.4081C284.001 14.5211 283.916 14.6623 284.03 14.7753C284.001 17.9677 284.001 21.1883 284.001 24.409Z" fill="white"/>
<path d="M84.8605 55.9654C84.2357 55.8241 83.6109 55.7111 83.0145 55.4286C82.0489 54.9484 81.2537 54.2703 80.8277 53.2533C80.6857 52.9143 80.6289 52.547 80.6005 52.1797C80.5721 51.982 80.6289 51.869 80.8561 51.869C81.1969 51.8972 81.5661 51.869 81.9069 51.869C82.0489 51.869 82.1341 51.9255 82.1625 52.0667C82.3329 53.4793 83.2701 54.2138 84.5481 54.5246C85.5421 54.7788 86.5645 54.7506 87.5869 54.4681C87.9561 54.3551 88.3253 54.1856 88.6377 53.9596C89.8873 53.0555 89.8873 51.3605 88.6661 50.4282C87.9845 49.9197 87.2177 49.6654 86.4225 49.4676C85.5137 49.2416 84.5765 49.0721 83.6961 48.7331C83.2701 48.5636 82.8725 48.3658 82.4749 48.1398C80.6005 46.9815 80.7141 44.4107 81.9637 43.1959C82.6453 42.5179 83.4405 42.0941 84.3777 41.8963C85.7693 41.6138 87.1609 41.6421 88.5241 42.2071C89.7169 42.7156 90.5973 43.5349 90.9381 44.8062C91.0233 45.117 91.0801 45.456 91.0801 45.8515C90.6257 45.8515 90.1713 45.8515 89.7169 45.8515C89.5749 45.8515 89.5465 45.795 89.5181 45.6537C89.4613 44.3824 88.2969 43.3654 86.8485 43.1111C85.9965 42.9699 85.1445 42.9981 84.3209 43.2806C83.9517 43.4219 83.6109 43.6197 83.2985 43.8739C82.3045 44.6932 82.3329 46.586 83.6961 47.2641C84.5481 47.6878 85.4569 47.9138 86.3657 48.1398C87.1609 48.3376 87.9277 48.5353 88.6661 48.8744C89.1773 49.1004 89.6317 49.3546 90.0577 49.7219C91.4493 50.8802 91.4209 53.2533 90.2849 54.4398C89.5465 55.2309 88.6377 55.6546 87.5869 55.8806C87.4449 55.9089 87.3313 55.9371 87.1893 55.9654C87.1325 56.0219 87.0757 55.9936 87.0189 56.0219C86.9337 56.0219 86.8485 56.0219 86.7633 56.0219C86.6497 56.0219 86.5645 55.9936 86.4509 56.0784C86.1101 56.0784 85.7693 56.0784 85.4285 56.0784C85.3433 55.9936 85.2297 56.0501 85.1445 56.0219C85.0877 56.0219 85.0309 56.0219 84.9741 56.0219C84.9741 55.9936 84.9173 56.0219 84.8605 55.9654Z" fill="white"/>
<path d="M157.536 55.9654C157.167 55.8524 156.769 55.7959 156.4 55.6547C154.753 55.0331 153.759 53.8183 153.162 52.208C152.85 51.3887 152.708 50.5412 152.68 49.6654C152.651 48.4789 152.651 47.2923 152.964 46.134C153.361 44.778 154.014 43.5914 155.179 42.7439C155.974 42.1789 156.854 41.8681 157.792 41.7551C158.7 41.6704 159.609 41.7269 160.518 42.0094C162.392 42.6309 163.727 44.2977 163.869 46.247C163.898 46.6143 163.898 46.6143 163.528 46.6426C163.5 46.6426 163.5 46.6426 163.472 46.6426C163.159 46.6426 162.79 46.7273 162.534 46.6143C162.25 46.473 162.364 46.0493 162.279 45.7668C161.824 44.1565 160.49 43.2524 159.183 43.0829C158.473 42.9982 157.82 43.0264 157.138 43.2524C155.889 43.6479 155.122 44.5237 154.668 45.7103C154.44 46.2753 154.298 46.8403 154.242 47.4336C154.128 48.8179 154.071 50.2304 154.469 51.5865C154.753 52.5753 155.264 53.4511 156.144 54.0726C156.712 54.4681 157.366 54.6659 158.076 54.7224C158.7 54.7506 159.325 54.7506 159.922 54.5529C161.285 54.1008 162.137 53.1968 162.336 51.756C162.364 51.6147 162.364 51.53 162.534 51.53C162.96 51.53 163.386 51.53 163.841 51.53C163.784 52.6318 163.386 53.5358 162.676 54.3269C161.938 55.1461 160.972 55.6264 159.893 55.9089C159.723 55.9372 159.552 55.9937 159.41 56.0219C159.354 56.0502 159.297 56.0502 159.24 56.0502C159.155 56.0502 159.041 56.0219 158.956 56.1067C158.615 56.1067 158.274 56.1067 157.934 56.1067C157.848 56.0219 157.735 56.0784 157.65 56.0502C157.65 55.9937 157.593 56.0219 157.536 55.9654Z" fill="white"/>
<path d="M97.6108 55.9655C97.5256 55.9372 97.4688 55.909 97.3836 55.8807C96.5884 55.683 96.0488 55.1745 95.7648 54.4117C95.5092 53.7619 95.4524 53.0556 95.4524 52.3493C95.4524 49.4677 95.4524 46.6144 95.4524 43.7327C95.4524 43.1677 95.5092 43.2525 94.9696 43.2242C94.4016 43.2242 93.8336 43.2242 93.2656 43.2242C92.8964 43.2242 92.8964 43.2242 92.8964 42.8852C92.8964 42.6027 92.8112 42.2354 92.9532 42.0377C93.0952 41.8399 93.4928 41.9812 93.7768 41.9529C94.2312 41.9247 94.6572 41.9529 95.1116 41.9529C95.424 41.9529 95.4524 41.9529 95.4524 41.6139C95.4524 40.6816 95.4524 39.7211 95.4524 38.7888C95.4524 38.4215 95.4524 38.4215 95.8216 38.4215C96.134 38.4215 96.4464 38.4498 96.7304 38.4215C96.986 38.3933 97.0144 38.5063 97.0144 38.704C97.0144 39.6081 97.0144 40.4839 97.0144 41.3879C97.0144 41.4727 97.0144 41.5574 97.0144 41.6704C96.986 41.8964 97.0712 41.9529 97.2984 41.9529C97.98 41.9529 98.6616 41.9529 99.3716 41.9529C99.4852 41.9529 99.5988 41.9529 99.684 41.9529C99.8544 41.9529 99.8828 42.0377 99.8828 42.1789C99.8828 42.4614 99.8828 42.7157 99.8828 42.9982C99.8828 43.1677 99.7976 43.2242 99.6556 43.2242C99.3716 43.2242 99.0876 43.2242 98.7752 43.2242C98.264 43.2242 97.7528 43.2242 97.27 43.2242C97.0712 43.2242 96.986 43.2807 97.0144 43.4785C97.0144 43.5632 97.0144 43.6197 97.0144 43.7045C97.0144 46.5861 97.0144 49.4395 97.0144 52.3211C97.0144 52.6884 97.0428 53.0839 97.1564 53.4511C97.3552 54.1857 97.7528 54.6094 98.832 54.6377C99.1728 54.6377 99.542 54.5812 99.8828 54.5529C100.053 54.5247 100.11 54.5812 100.11 54.7224C100.11 55.0049 100.11 55.2592 100.138 55.5417C100.167 55.7395 100.082 55.8242 99.8828 55.8525C99.7692 55.8525 99.684 55.909 99.5704 55.9372C99.5136 55.9937 99.4568 55.9655 99.4 55.9655C99.3432 55.9655 99.2864 55.9655 99.2296 55.9655C99.1444 55.9655 99.0308 55.9372 98.9456 56.022C98.6616 56.022 98.406 56.022 98.122 56.022C98.0368 55.9372 97.9232 55.9937 97.838 55.9655C97.7244 55.9937 97.6676 56.022 97.6108 55.9655Z" fill="white"/>
<path d="M44.6739 3.55961C43.4527 3.55961 42.2315 3.55961 41.0103 3.55961C29.5083 3.55961 18.0063 3.55961 6.50431 3.55961C6.53271 3.53136 6.44751 3.47485 6.56111 3.47485C6.67471 3.47485 6.81671 3.47485 6.93031 3.47485C19.5115 3.47485 32.0927 3.47485 44.7023 3.47485C44.6739 3.5031 44.6739 3.53136 44.6739 3.55961Z" fill="#F2B49E"/>
<path d="M284.001 14.7471C283.858 14.6341 283.916 14.5211 283.916 14.3798C283.944 14.3516 283.973 14.3516 284.001 14.3798C284.001 14.5211 284.001 14.6341 284.001 14.7471Z" fill="white"/>
<path d="M139.842 56.0502C139.927 55.9655 140.012 55.9655 140.126 55.9655C140.154 55.9937 140.154 55.9937 140.154 56.022C140.154 56.0502 140.126 56.0502 140.126 56.0502C140.012 56.0502 139.927 56.0502 139.842 56.0502Z" fill="white"/>
<path d="M69.3526 55.9655C69.4378 55.9655 69.523 55.9655 69.6082 55.9937C69.6366 55.9937 69.665 56.022 69.6366 56.0502C69.6366 56.0785 69.6082 56.0785 69.6082 56.0785C69.523 56.0785 69.4378 56.0785 69.3242 56.0785C69.3526 56.022 69.3526 55.9937 69.3526 55.9655Z" fill="white"/>
<path d="M69.6367 56.0501C69.6367 56.0219 69.6367 55.9937 69.6367 55.9654C69.7503 55.9372 69.8355 55.9371 69.9207 56.0501C69.8071 56.0501 69.7219 56.0501 69.6367 56.0501Z" fill="white"/>
<path d="M70.916 56.0502C71.0012 55.9372 71.0864 55.9654 71.2 55.9654C71.2284 55.9937 71.2284 55.9937 71.2284 56.0219C71.2284 56.0502 71.2 56.0502 71.2 56.0502C71.0864 56.0502 71.0012 56.0502 70.916 56.0502Z" fill="white"/>
<path d="M157.706 55.9654C157.82 55.9654 157.905 55.9372 157.99 56.0502C157.905 56.0502 157.82 56.0502 157.706 56.0502C157.706 56.0219 157.678 56.0219 157.706 55.9654C157.706 55.9937 157.706 55.9654 157.706 55.9654Z" fill="white"/>
<path d="M159.012 56.0502C159.097 55.9655 159.182 55.9655 159.296 55.9655C159.324 55.9937 159.324 55.9937 159.324 56.022C159.324 56.0502 159.296 56.0502 159.296 56.0502C159.182 56.0502 159.097 56.0502 159.012 56.0502Z" fill="white"/>
<path d="M109.199 55.9654C109.285 55.9654 109.37 55.9654 109.455 55.9371C109.455 55.9654 109.455 55.9936 109.455 56.0219C109.37 56.0219 109.285 56.0219 109.171 56.0219C109.143 55.9936 109.143 55.9936 109.143 55.9654C109.171 55.9936 109.171 55.9654 109.199 55.9654Z" fill="white"/>
<path d="M85.2296 55.9654C85.3432 55.9372 85.4284 55.9371 85.5136 56.0501C85.4284 56.0501 85.3432 56.0501 85.2296 56.0501C85.2012 56.0219 85.2012 56.0219 85.2012 55.9936C85.2012 55.9936 85.2012 55.9654 85.2296 55.9654Z" fill="white"/>
<path d="M86.5078 56.0502C86.593 55.9372 86.6782 55.9654 86.7918 55.9654C86.8202 55.9937 86.8202 55.9937 86.8202 56.0219C86.8202 56.0502 86.7918 56.0502 86.7918 56.0502C86.7066 56.0502 86.593 56.0502 86.5078 56.0502Z" fill="white"/>
<path d="M86.791 56.0502C86.791 56.022 86.791 55.9937 86.791 55.9655C86.8762 55.9655 86.9614 55.9655 87.0466 55.9655C87.075 55.9937 87.075 55.9937 87.075 56.022C87.075 56.0502 87.0466 56.0502 87.0466 56.0502C86.9614 56.0502 86.8762 56.0502 86.791 56.0502Z" fill="white"/>
<path d="M97.7823 55.9654C97.8959 55.9372 97.9811 55.9371 98.0663 56.0501C97.9811 56.0501 97.8959 56.0501 97.7823 56.0501C97.7539 56.0219 97.7539 56.0219 97.7539 55.9936C97.7823 55.9936 97.7823 55.9654 97.7823 55.9654Z" fill="white"/>
<path d="M98.8887 56.0502C98.9739 55.9372 99.0591 55.9654 99.1727 55.9654C99.2011 55.9937 99.201 55.9937 99.201 56.0219C99.201 56.0502 99.1727 56.0502 99.1727 56.0502C99.0875 56.0502 99.0023 56.0502 98.8887 56.0502Z" fill="white"/>
<path d="M107.439 55.9655C107.524 55.9655 107.609 55.9655 107.694 55.9655C107.723 55.9655 107.751 55.9937 107.723 56.022C107.723 56.0502 107.694 56.0502 107.694 56.0502C107.609 56.0502 107.524 56.0502 107.41 56.0502C107.439 56.022 107.439 55.9937 107.439 55.9655Z" fill="white"/>
<path d="M107.721 56.0501C107.721 56.0219 107.721 55.9937 107.721 55.9654C107.834 55.9372 107.948 55.9371 108.005 56.0501C107.891 56.0501 107.806 56.0501 107.721 56.0501Z" fill="white"/>
<path d="M109.198 55.9654C109.198 55.9937 109.198 56.0219 109.198 56.0502C109.113 56.0502 109.028 56.0502 108.914 56.0502C108.971 55.9372 109.084 55.9654 109.198 55.9654Z" fill="white"/>
<path d="M138.536 55.9654C138.65 55.9654 138.763 55.9372 138.82 56.0502C138.735 56.0502 138.65 56.0502 138.536 56.0502C138.508 56.0219 138.508 56.0219 138.508 55.9937C138.508 55.9654 138.536 55.9654 138.536 55.9654Z" fill="white"/>
<path d="M284.002 14.408C283.973 14.408 283.945 14.408 283.916 14.408C283.916 14.3515 283.916 14.295 283.916 14.2385C283.945 14.2385 283.973 14.2385 284.002 14.2385C284.002 14.2668 284.002 14.3233 284.002 14.408Z" fill="white"/>
<path d="M71.1699 56.0502C71.1699 56.022 71.1699 55.9937 71.1699 55.9655C71.2267 55.9655 71.2835 55.9655 71.3403 55.9655C71.3687 55.9937 71.3687 55.9937 71.3687 56.022C71.3687 56.0502 71.3403 56.0502 71.3403 56.0502C71.3119 56.0502 71.2551 56.0502 71.1699 56.0502Z" fill="white"/>
<path d="M71.3691 56.0502C71.3691 56.022 71.3691 55.9937 71.3691 55.9655C71.4259 55.9655 71.4827 55.9655 71.5395 55.9655C71.5395 55.9937 71.5395 56.022 71.5395 56.0502C71.4827 56.0502 71.4259 56.0502 71.3691 56.0502Z" fill="white"/>
<path d="M84.8594 55.9655C84.9162 55.9655 84.973 55.9655 85.0298 55.9655C85.0582 55.9937 85.0866 55.9937 85.0582 56.022C85.0582 56.0502 85.0298 56.0502 85.0298 56.0502C84.973 56.0502 84.9162 56.0502 84.8594 56.0502C84.8594 56.022 84.8594 55.9937 84.8594 55.9655Z" fill="white"/>
<path d="M87.0469 56.0502C87.0469 56.022 87.0469 55.9937 87.0469 55.9655C87.1037 55.9655 87.1605 55.9655 87.2173 55.9655C87.2173 55.9937 87.2173 56.022 87.2173 56.0502C87.1889 56.0502 87.1321 56.0502 87.0469 56.0502Z" fill="white"/>
<path d="M138.536 55.9655C138.536 55.9937 138.536 56.022 138.536 56.0502C138.479 56.0502 138.422 56.0502 138.365 56.0502C138.365 56.022 138.365 55.9937 138.365 55.9655C138.422 55.9655 138.479 55.9655 138.536 55.9655Z" fill="white"/>
<path d="M99.1738 56.0502C99.1738 56.022 99.1738 55.9937 99.1738 55.9655C99.2306 55.9655 99.2874 55.9655 99.3442 55.9655C99.3726 55.9937 99.3727 55.9937 99.3727 56.022C99.3727 56.0502 99.3442 56.0502 99.3442 56.0502C99.2874 56.0502 99.2306 56.0502 99.1738 56.0502Z" fill="white"/>
<path d="M99.3438 56.0502C99.3438 56.022 99.3438 55.9937 99.3438 55.9655C99.4006 55.9655 99.4574 55.9655 99.5142 55.9655C99.5142 55.9937 99.5142 56.022 99.5142 56.0502C99.4858 56.0502 99.429 56.0502 99.3438 56.0502Z" fill="white"/>
<path d="M140.098 56.0502C140.098 56.022 140.098 55.9937 140.098 55.9655C140.154 55.9655 140.211 55.9655 140.268 55.9655C140.296 55.9937 140.296 55.9937 140.296 56.022C140.296 56.0502 140.268 56.0502 140.268 56.0502C140.24 56.0502 140.154 56.0502 140.098 56.0502Z" fill="white"/>
<path d="M140.297 56.0502C140.297 56.022 140.297 55.9937 140.297 55.9655C140.354 55.9655 140.41 55.9655 140.467 55.9655C140.467 55.9937 140.467 56.022 140.467 56.0502C140.41 56.0502 140.354 56.0502 140.297 56.0502Z" fill="white"/>
<path d="M157.706 55.9655C157.706 55.9937 157.706 56.022 157.706 56.0502C157.649 56.0502 157.592 56.0502 157.535 56.0502C157.535 56.022 157.535 55.9937 157.535 55.9655C157.592 55.9655 157.649 55.9655 157.706 55.9655Z" fill="white"/>
<path d="M97.7817 55.9655C97.7817 55.9937 97.7817 56.022 97.7817 56.0502C97.7249 56.0502 97.6681 56.0502 97.6113 56.0502C97.6113 56.022 97.6113 55.9937 97.6113 55.9655C97.6681 55.9655 97.7249 55.9655 97.7817 55.9655Z" fill="white"/>
<path d="M85.0293 56.0502C85.0293 56.022 85.0293 55.9937 85.0293 55.9655C85.0861 55.9655 85.1429 55.9655 85.1997 55.9655C85.1997 55.9937 85.1997 56.022 85.1997 56.0502C85.1713 56.0502 85.1145 56.0502 85.0293 56.0502Z" fill="white"/>
<path d="M159.297 56.0502C159.297 56.022 159.297 55.9937 159.297 55.9655C159.354 55.9655 159.41 55.9655 159.467 55.9655C159.467 55.9937 159.467 56.022 159.467 56.0502C159.41 56.0502 159.354 56.0502 159.297 56.0502Z" fill="white"/>
<path d="M63.7309 5.9045C64.7533 5.9045 65.7473 5.9045 66.7129 5.9045C66.9117 5.9045 66.9685 6.0175 67.0253 6.15876C67.4229 7.1758 67.8489 8.19284 68.2465 9.18163C69.8085 13.0238 71.3705 16.8942 72.9041 20.7363C72.9325 20.7928 72.9325 20.8493 72.9609 20.9058C73.1313 20.8211 73.1313 20.6798 73.1881 20.5386C75.1193 15.7924 77.0221 11.0462 78.9249 6.27176C79.0669 5.87625 79.0669 5.87625 79.5213 5.87625C80.3165 5.87625 81.1117 5.87625 81.9069 5.87625C82.3329 5.87625 82.3045 5.84799 82.3045 6.27176C82.3045 7.82557 82.3045 9.37939 82.3045 10.9332C82.3045 15.2274 82.3045 19.4933 82.3045 23.7875C82.3045 23.8722 82.3045 23.957 82.3045 24.07C82.3045 24.4372 82.3329 24.409 81.9637 24.409C81.3673 24.409 80.7709 24.409 80.1745 24.409C79.8337 24.409 79.8337 24.409 79.8337 24.0982C79.8621 21.1319 79.7769 18.1372 79.8905 15.1709C79.9757 13.3628 80.0041 11.5265 80.0325 9.69015C79.8621 9.7749 79.8621 9.94441 79.8053 10.0857C77.9025 14.7188 75.9997 19.3803 74.0969 24.0135C73.9265 24.409 73.9265 24.409 73.5289 24.409C73.1597 24.409 72.7905 24.409 72.4213 24.409C72.0237 24.409 72.0237 24.409 71.9101 24.07C70.7457 21.2449 69.5813 18.3915 68.4453 15.5664C67.6785 13.7018 66.9401 11.8655 66.1733 10.0009C66.1449 9.91616 66.0881 9.80315 65.9745 9.7184C65.9745 9.8314 65.9745 9.97266 65.9745 10.0857C66.1733 14.6906 66.2585 19.2955 66.2017 23.9005C66.2017 24.4655 66.2869 24.409 65.6905 24.409C65.1225 24.409 64.5545 24.409 63.9865 24.409C63.7593 24.409 63.6741 24.3525 63.7025 24.1265C63.7025 24.07 63.7025 24.0135 63.7025 23.957C63.7025 18.0807 63.7025 12.2327 63.7025 6.35651C63.7309 6.24351 63.7309 6.10225 63.7309 5.9045Z" fill="white"/>
<path d="M111.81 16.5551C113.486 14.6341 115.304 12.9108 116.979 11.0744C117.235 10.7919 117.519 10.6507 117.916 10.6507C118.655 10.6789 119.393 10.6507 120.274 10.6507C119.308 11.6677 118.428 12.6282 117.547 13.5605C116.667 14.4928 115.786 15.4534 114.878 16.3856C116.866 19.0412 118.854 21.6686 120.813 24.296C120.728 24.4372 120.614 24.3807 120.501 24.3807C119.819 24.3807 119.138 24.3807 118.428 24.3807C118.144 24.3807 118.002 24.296 117.831 24.0699C116.411 22.2054 115.02 20.3408 113.6 18.4762C113.486 18.335 113.401 18.222 113.259 18.0242C112.776 18.5045 112.322 18.9847 111.867 19.465C111.754 19.578 111.782 19.7475 111.782 19.8888C111.782 21.2166 111.782 22.5444 111.782 23.8439C111.782 23.9569 111.782 24.0699 111.782 24.1547C111.782 24.296 111.725 24.3525 111.583 24.3525C110.902 24.3525 110.248 24.3525 109.567 24.3525C109.425 24.3525 109.396 24.2677 109.396 24.1547C109.396 24.0417 109.396 23.9287 109.396 23.8439C109.396 17.6852 109.396 11.4982 109.396 5.33945C109.396 4.83093 109.396 4.83093 109.908 4.83093C110.447 4.83093 110.987 4.83093 111.526 4.83093C111.754 4.83093 111.81 4.88743 111.81 5.11344C111.81 5.81972 111.81 6.55425 111.81 7.26053C111.81 10.1704 111.81 13.0803 111.81 16.0184C111.81 16.2444 111.81 16.4139 111.81 16.5551Z" fill="white"/>
<path d="M153.701 12.3174C153.928 12.0914 154.127 11.8654 154.326 11.6959C155.49 10.6506 156.882 10.3116 158.444 10.4528C159.239 10.5376 160.006 10.7353 160.659 11.2439C161.426 11.8089 161.824 12.5999 162.051 13.504C162.221 14.1537 162.25 14.8035 162.25 15.4533C162.25 18.3349 162.25 21.1883 162.25 24.0699C162.25 24.1546 162.25 24.2111 162.25 24.2959C162.25 24.4371 162.193 24.4654 162.051 24.4654C161.398 24.4654 160.744 24.4654 160.091 24.4654C159.892 24.4654 159.864 24.3806 159.864 24.2111C159.864 24.0981 159.864 23.9851 159.864 23.9004C159.864 21.1035 159.864 18.2784 159.864 15.4815C159.864 15.0013 159.836 14.5493 159.694 14.0972C159.41 13.1932 158.813 12.6847 157.904 12.5434C156.172 12.2609 154.866 12.8542 153.928 14.3232C153.786 14.5493 153.73 14.7753 153.73 15.0578C153.73 18.0241 153.73 21.0188 153.73 23.9851C153.73 24.0981 153.73 24.2111 153.73 24.2959C153.73 24.4371 153.673 24.4654 153.531 24.4654C152.878 24.4654 152.224 24.4654 151.571 24.4654C151.372 24.4654 151.344 24.3806 151.344 24.2111C151.344 24.1264 151.344 24.0416 151.344 23.9286C151.344 19.691 151.344 15.4533 151.344 11.2156C151.344 11.1874 151.344 11.1591 151.344 11.1309C151.344 10.6506 151.316 10.6788 151.798 10.6788C152.281 10.6788 152.764 10.6788 153.275 10.6788C153.644 10.6788 153.644 10.6788 153.644 11.0461C153.616 11.4416 153.588 11.8654 153.701 12.3174Z" fill="white"/>
<path d="M232.767 20.1995C233.079 20.1995 233.42 20.1995 233.732 20.1995C233.874 20.1995 233.96 20.2277 233.988 20.3972C234.158 21.6968 234.982 22.3748 236.175 22.6573C236.998 22.8551 237.85 22.8268 238.674 22.5726C238.873 22.5161 239.072 22.4313 239.27 22.3183C239.867 21.9793 240.236 21.499 240.264 20.7927C240.264 20.0582 239.924 19.5214 239.299 19.1542C238.816 18.8717 238.305 18.7022 237.765 18.5892C236.856 18.3631 235.919 18.1936 235.039 17.8546C234.528 17.6569 234.073 17.4309 233.59 17.1483C231.688 15.9901 231.801 13.73 232.682 12.4869C233.278 11.6111 234.102 11.0461 235.124 10.7353C236.658 10.2551 238.191 10.2833 239.696 10.8483C240.918 11.3286 241.855 12.1479 242.309 13.4192C242.423 13.7582 242.48 14.0972 242.508 14.4362C242.536 14.634 242.48 14.747 242.252 14.747C241.628 14.747 241.031 14.747 240.406 14.747C240.236 14.747 240.122 14.7188 240.094 14.521C239.952 13.4475 239.27 12.8542 238.305 12.5434C237.481 12.2609 236.658 12.3174 235.834 12.5999C234.982 12.9107 234.499 13.5605 234.471 14.3515C234.442 15.0013 234.726 15.4815 235.323 15.7923C235.834 16.0466 236.374 16.2161 236.913 16.3573C237.879 16.6116 238.873 16.8093 239.81 17.1766C240.264 17.3461 240.69 17.5721 241.116 17.8264C243.218 19.1824 242.934 21.8945 241.684 23.1658C240.918 23.9286 239.98 24.3806 238.93 24.5784C237.453 24.8609 236.004 24.8044 234.613 24.2676C233.25 23.7309 232.256 22.8268 231.801 21.4143C231.716 21.1035 231.659 20.7927 231.631 20.482C231.631 20.2842 231.688 20.256 231.858 20.256C232.142 20.2277 232.454 20.1995 232.767 20.1995Z" fill="white"/>
<path d="M246.285 20.1995C246.597 20.1995 246.909 20.1995 247.193 20.1995C247.364 20.1995 247.477 20.2278 247.477 20.4538C247.648 21.7816 248.727 22.5444 249.977 22.7139C250.687 22.8269 251.368 22.7704 252.05 22.6009C252.334 22.5444 252.589 22.4031 252.845 22.2619C254.038 21.5556 253.924 19.8605 252.845 19.239C252.22 18.8717 251.539 18.674 250.829 18.5045C249.806 18.2785 248.784 18.0525 247.818 17.6004C247.534 17.4592 247.279 17.3179 247.023 17.1484C245.177 15.9901 245.234 13.8148 246.086 12.5435C246.654 11.6677 247.477 11.0744 248.5 10.7354C250.062 10.2269 251.624 10.2269 253.158 10.8202C254.464 11.3287 255.43 12.2045 255.827 13.617C255.912 13.8995 255.941 14.1821 255.969 14.4646C255.969 14.6341 255.941 14.7188 255.742 14.7188C255.089 14.7188 254.435 14.7188 253.782 14.7188C253.64 14.7188 253.612 14.6623 253.584 14.5493C253.186 13.0803 252.277 12.374 250.744 12.3457C250.175 12.3457 249.607 12.374 249.096 12.6282C248.5 12.9108 248.074 13.3345 247.96 14.0126C247.818 14.7753 248.102 15.3686 248.784 15.7359C249.409 16.0466 250.062 16.2161 250.715 16.3856C251.737 16.6117 252.732 16.8659 253.669 17.2897C254.01 17.4309 254.322 17.6287 254.634 17.8265C256.594 19.0978 256.338 21.7251 255.288 22.9399C254.691 23.6179 253.953 24.0982 253.072 24.3525C251.226 24.8892 249.38 24.861 247.619 24.0417C246.398 23.4767 245.546 22.5726 245.177 21.2448C245.12 21.0188 245.063 20.7646 245.035 20.5386C245.007 20.2278 245.007 20.2278 245.319 20.2278C245.688 20.1995 246.001 20.1995 246.285 20.1995Z" fill="white"/>
<path d="M168.584 44.1847C169.18 43.3089 169.862 42.6591 170.771 42.2354C172.162 41.5856 173.582 41.5573 175.002 42.0659C176.195 42.4896 176.848 43.4219 177.161 44.5802C177.331 45.23 177.416 45.8798 177.445 46.5578C177.445 49.4959 177.445 52.434 177.445 55.3439C177.445 55.7394 177.445 55.7394 177.047 55.7394C176.735 55.7394 176.422 55.7394 176.138 55.7394C175.968 55.7394 175.883 55.6829 175.883 55.5134C175.883 55.4004 175.883 55.2874 175.883 55.2026C175.883 52.3775 175.883 49.5524 175.883 46.7273C175.883 46.1058 175.826 45.4842 175.599 44.891C175.229 43.7892 174.434 43.2242 173.298 43.1112C171.083 42.8851 169.322 44.0152 168.555 46.1058C168.47 46.3035 168.47 46.5295 168.47 46.7273C168.47 49.5524 168.47 52.3775 168.47 55.2026C168.47 55.3156 168.47 55.4286 168.47 55.5134C168.47 55.6829 168.413 55.7677 168.215 55.7677C167.845 55.7677 167.476 55.7677 167.107 55.7677C166.965 55.7677 166.908 55.7111 166.908 55.5699C166.908 55.4851 166.908 55.4004 166.908 55.2874C166.908 49.0721 166.908 42.8569 166.908 36.6416C166.908 36.5569 166.908 36.5004 166.908 36.4156C166.908 36.2461 166.965 36.1614 167.135 36.1614C167.476 36.1614 167.845 36.1614 168.186 36.1614C168.357 36.1614 168.442 36.2179 168.442 36.3874C168.442 36.5004 168.442 36.6134 168.442 36.6981C168.442 39.0147 168.442 41.3031 168.442 43.6197C168.527 43.8174 168.499 43.9587 168.584 44.1847Z" fill="white"/>
<path d="M142.227 22.5443C142.227 23.1376 142.227 23.7308 142.227 24.3241C142.227 24.4371 142.17 24.4936 142.056 24.4936C141.233 24.6631 140.409 24.7761 139.557 24.6066C138.535 24.4089 137.882 23.8156 137.484 22.8551C137.228 22.2053 137.171 21.5273 137.171 20.8492C137.171 18.2219 137.171 15.5945 137.171 12.9672C137.171 12.4021 137.2 12.4869 136.689 12.4869C136.121 12.4869 135.524 12.4869 134.956 12.4869C134.757 12.4869 134.644 12.4587 134.672 12.2044C134.701 11.7806 134.701 11.3569 134.672 10.9331C134.672 10.7071 134.729 10.6506 134.956 10.6506C135.609 10.6506 136.234 10.6506 136.887 10.6506C137.115 10.6506 137.2 10.5941 137.2 10.3398C137.2 9.43578 137.2 8.56 137.2 7.65596C137.2 7.31695 137.2 7.2887 137.541 7.2887C138.109 7.2887 138.705 7.2887 139.273 7.2887C139.5 7.2887 139.557 7.37345 139.557 7.57121C139.557 8.47524 139.557 9.35103 139.557 10.2551C139.557 10.6223 139.529 10.6223 139.926 10.6223C140.58 10.6223 141.204 10.6223 141.858 10.6223C142.056 10.6223 142.17 10.6788 142.17 10.9048C142.17 11.3286 142.142 11.7524 142.17 12.1761C142.17 12.4021 142.085 12.4587 141.886 12.4587C141.233 12.4587 140.58 12.4587 139.926 12.4587C139.614 12.4587 139.586 12.4587 139.586 12.7977C139.586 15.538 139.586 18.2784 139.586 20.9905C139.586 21.1317 139.614 21.3012 139.642 21.4425C139.756 22.403 140.267 22.6008 140.977 22.6573C141.375 22.7138 141.772 22.6008 142.227 22.5443Z" fill="white"/>
<path d="M211.949 12.0915C212.233 11.8655 212.432 11.6112 212.659 11.4134C213.625 10.5377 214.761 10.2834 216.01 10.5094C216.209 10.5377 216.323 10.6224 216.323 10.8767C216.294 11.4417 216.323 12.0067 216.323 12.5717C216.323 12.7413 216.266 12.7978 216.067 12.7978C215.556 12.7695 215.073 12.7413 214.562 12.7695C213.738 12.8543 213.028 13.1933 212.517 13.8148C212.176 14.2386 211.977 14.6906 211.977 15.2556C212.006 18.1372 211.977 21.0188 211.977 23.9004C211.977 24.0135 211.977 24.1265 211.977 24.2112C211.977 24.3525 211.949 24.4372 211.779 24.4372C211.125 24.4372 210.472 24.4372 209.819 24.4372C209.677 24.4372 209.592 24.3807 209.592 24.2112C209.592 24.0982 209.592 23.9852 209.592 23.9004C209.592 19.6628 209.592 15.4251 209.592 11.1874C209.592 11.1309 209.592 11.1027 209.592 11.0462C209.592 10.6507 209.592 10.6507 209.989 10.6507C210.529 10.6507 211.097 10.6507 211.637 10.6507C211.864 10.6507 211.949 10.7354 211.921 10.9332C211.949 11.3287 211.949 11.696 211.949 12.0915Z" fill="white"/>
<path d="M102.95 12.0915C103.234 11.7807 103.49 11.4417 103.831 11.1592C104.768 10.4529 105.819 10.2552 106.955 10.4812C107.125 10.5094 107.267 10.5659 107.267 10.792C107.239 11.4135 107.267 12.0633 107.267 12.7695C106.955 12.7413 106.642 12.7413 106.358 12.713C105.677 12.6848 104.995 12.7413 104.37 13.0803C103.774 13.3911 103.348 13.8713 103.036 14.4646C102.95 14.6624 102.95 14.8601 102.95 15.0296C102.95 17.996 102.95 20.9341 102.95 23.9005C102.95 24.4655 103.036 24.409 102.439 24.409C101.928 24.409 101.417 24.409 100.934 24.409C100.536 24.409 100.565 24.4373 100.565 24.0417C100.565 22.7987 100.565 21.5839 100.565 20.3408C100.565 17.2897 100.565 14.2386 100.565 11.1875C100.565 11.0745 100.565 10.9615 100.565 10.8767C100.565 10.7072 100.622 10.6507 100.792 10.6507C101.417 10.6507 102.013 10.6507 102.638 10.6507C102.865 10.6507 102.894 10.7355 102.894 10.9332C102.894 11.3005 102.894 11.696 102.894 12.0633C102.894 12.0633 102.922 12.0915 102.95 12.0915Z" fill="white"/>
<path d="M145.153 17.5439C145.153 15.425 145.153 13.3344 145.153 11.2156C145.153 11.1026 145.153 10.9896 145.153 10.9048C145.153 10.7636 145.181 10.6788 145.351 10.6788C146.004 10.6788 146.658 10.6788 147.311 10.6788C147.481 10.6788 147.538 10.7636 147.51 10.9048C147.51 10.9896 147.51 11.0743 147.51 11.1874C147.51 15.4533 147.51 19.7192 147.51 23.9851C147.51 24.0416 147.51 24.0981 147.51 24.1546C147.538 24.3524 147.481 24.4654 147.226 24.4371C146.601 24.4089 146.004 24.4371 145.38 24.4371C145.153 24.4371 145.096 24.3524 145.096 24.1546C145.096 23.4483 145.096 22.7138 145.096 22.0075C145.153 20.5102 145.153 19.0412 145.153 17.5439Z" fill="white"/>
<path d="M127.006 44.0435C127.261 43.6197 127.489 43.2807 127.744 42.9982C128.511 42.1789 129.448 41.7834 130.527 41.7269C130.897 41.6986 131.294 41.6986 131.663 41.8116C131.805 41.8681 131.862 41.9246 131.862 42.0659C131.862 42.4614 131.862 42.8569 131.862 43.2524C131.493 43.2524 131.181 43.1677 130.84 43.1677C128.795 43.1677 127.545 44.326 126.977 46.1058C126.921 46.2753 126.949 46.4448 126.949 46.6143C126.949 49.4959 126.949 52.3493 126.949 55.2309C126.949 55.7959 127.006 55.7394 126.438 55.7394C126.182 55.7394 125.927 55.7394 125.671 55.7394C125.472 55.7394 125.387 55.6547 125.415 55.4852C125.415 55.4004 125.415 55.3157 125.415 55.2027C125.415 50.965 125.415 46.7273 125.415 42.4897C125.415 42.4332 125.415 42.3767 125.415 42.3202C125.415 41.9811 125.415 41.9811 125.756 41.9811C126.04 41.9811 126.324 41.9811 126.637 41.9811C126.864 41.9811 126.921 42.0376 126.921 42.2637C126.921 42.7722 126.949 43.2524 126.949 43.761C126.977 43.8457 126.977 43.9022 127.006 44.0435Z" fill="white"/>
<path d="M118.201 43.9587C118.343 43.7609 118.485 43.5349 118.627 43.3371C119.621 42.0093 121.013 41.6138 122.603 41.7551C123.058 41.8116 123.058 41.8398 123.029 42.2636C123.029 42.5743 123.143 42.9699 122.973 43.1959C122.774 43.4219 122.405 43.1959 122.121 43.1959C120.047 43.1676 118.769 44.3259 118.201 46.0775C118.116 46.3035 118.116 46.5295 118.116 46.7555C118.116 49.4394 118.116 52.095 118.116 54.7788C118.116 55.0896 118.258 55.5134 118.059 55.7111C117.832 55.9371 117.435 55.7676 117.094 55.7959C117.009 55.7959 116.923 55.7959 116.81 55.7959C116.668 55.7959 116.583 55.7394 116.583 55.5981C116.583 55.4851 116.583 55.3721 116.583 55.2874C116.583 51.0497 116.583 46.7838 116.583 42.5461C116.583 41.9811 116.497 42.0658 117.065 42.0658C117.293 42.0658 117.52 42.0658 117.747 42.0658C118.088 42.0658 118.088 42.0658 118.088 42.4331C118.088 42.9699 118.088 43.4784 118.088 44.0152C118.145 43.9587 118.173 43.9587 118.201 43.9587Z" fill="white"/>
<path d="M149.271 48.8744C149.271 50.9933 149.271 53.1403 149.271 55.2592C149.271 55.3722 149.271 55.4852 149.271 55.5699C149.271 55.7112 149.215 55.7677 149.073 55.7677C148.675 55.7677 148.277 55.7677 147.88 55.7677C147.766 55.7677 147.709 55.7112 147.709 55.5982C147.709 55.4852 147.709 55.3722 147.709 55.2874C147.709 51.0215 147.709 46.7556 147.709 42.4897C147.709 42.4049 147.709 42.3484 147.709 42.2637C147.681 42.0659 147.795 42.0094 147.965 42.0094C148.306 42.0094 148.675 42.0094 149.016 42.0094C149.186 42.0094 149.243 42.0659 149.243 42.2354C149.243 42.7722 149.243 43.3372 149.243 43.874C149.271 45.5408 149.271 47.2076 149.271 48.8744Z" fill="white"/>
<path d="M144.953 7.03445C144.953 6.18692 145.493 5.65015 146.345 5.65015C147.197 5.65015 147.765 6.18692 147.765 7.03445C147.765 7.85373 147.197 8.36225 146.345 8.36225C145.493 8.36225 144.953 7.85373 144.953 7.03445Z" fill="white"/>
<path d="M148.504 39.0148C147.822 39.0431 147.453 38.5345 147.453 38.026C147.453 37.574 147.766 36.9807 148.532 36.9807C149.157 37.009 149.583 37.4327 149.583 38.026C149.583 38.5345 149.186 39.0713 148.504 39.0148Z" fill="white"/>
<path d="M73.2433 32.7996C73.8681 32.7996 74.2941 33.2516 74.2941 33.8448C74.2941 34.4099 73.8396 34.8336 73.2149 34.8336C72.5901 34.8336 72.1641 34.4099 72.1641 33.8166C72.1925 33.2233 72.6185 32.7996 73.2433 32.7996Z" fill="white"/>
<path d="M67.6487 32.7996C68.2735 32.7996 68.6995 33.2233 68.7279 33.7883C68.7279 34.4099 68.3019 34.8054 67.6487 34.8054C67.0239 34.8054 66.5979 34.4099 66.6263 33.7883C66.5979 33.2233 67.0239 32.7996 67.6487 32.7996Z" fill="white"/>
<path d="M77.7038 45.2865C77.7038 44.439 77.6186 43.5914 77.4198 42.7721C77.1074 41.4161 76.5394 40.1448 75.5738 39.1277C74.2106 37.6869 72.535 37.0089 70.547 37.0089C67.7354 37.0089 65.6338 38.1955 64.299 40.6251C63.6458 41.8116 63.3334 43.0829 63.2482 44.4107C63.163 45.5972 63.1914 46.812 63.2198 47.9986C63.2482 49.2134 63.447 50.3999 63.9014 51.5017C64.6682 53.3946 65.9178 54.8071 67.849 55.5699C68.3602 55.7677 68.8714 55.8524 69.3826 55.9654C69.4678 56.0219 69.553 55.9937 69.6382 55.9937C69.7518 55.9937 69.8654 55.9654 69.9506 56.0502C70.2914 56.0502 70.6322 56.0502 70.973 56.0502C71.0582 55.9654 71.1718 56.0219 71.257 55.9937C71.3138 55.9937 71.3706 55.9937 71.4274 55.9937C71.4842 55.9937 71.541 55.9937 71.5978 55.9654C71.7398 55.9372 71.8534 55.9089 71.9954 55.8807C73.6994 55.5416 75.091 54.6941 76.1134 53.2816C77.221 51.756 77.647 50.0327 77.7322 48.1964C77.7322 47.2358 77.7038 46.247 77.7038 45.2865ZM75.8578 49.9762C75.5738 51.304 75.0342 52.4905 74.0118 53.3946C73.1882 54.1291 72.2226 54.5246 71.115 54.6094C70.3766 54.6659 69.6382 54.6659 68.9282 54.4681C67.5082 54.1008 66.4858 53.225 65.7474 51.9538C65.0658 50.739 64.7818 49.4394 64.7534 48.0833C64.725 47.0381 64.725 46.021 64.7534 44.9757C64.7818 43.7044 65.009 42.4614 65.6054 41.3313C66.3438 39.8905 67.4514 38.8735 69.0702 38.5345C70.9162 38.139 72.6486 38.3932 74.097 39.721C75.0626 40.5968 75.5738 41.7551 75.8578 42.9981C76.1134 44.1564 76.1418 45.3147 76.1134 46.4165C76.1418 47.6313 76.1134 48.8179 75.8578 49.9762Z" fill="white"/>
<path d="M144.302 45.7668C143.393 42.4332 140.524 41.1619 137.628 41.9529C135.753 42.4614 134.504 43.7327 133.765 45.5125C132.942 47.5466 132.913 49.6372 133.51 51.6995C133.992 53.3098 134.986 54.5529 136.492 55.3439C137.088 55.6547 137.713 55.8242 138.338 55.9655C138.394 56.022 138.451 55.9937 138.508 55.9937C138.593 55.9937 138.707 55.9655 138.792 56.0502C139.133 56.0502 139.474 56.0502 139.814 56.0502C139.9 55.9655 140.013 56.022 140.098 55.9937C140.155 55.9937 140.212 55.9937 140.269 55.9937C140.326 55.9937 140.382 55.9937 140.439 55.9655C140.695 55.909 140.979 55.8524 141.234 55.7677C142.399 55.4287 143.336 54.7789 144.074 53.8184C144.216 53.6206 144.217 53.5076 144.018 53.3946C143.762 53.2251 143.535 53.0556 143.279 52.8578C142.228 54.2139 140.865 54.7789 139.19 54.7224C138.139 54.6659 137.23 54.3269 136.463 53.6206C135.242 52.5188 134.731 51.078 134.674 49.4677C134.646 48.9027 134.646 48.9874 135.157 48.9874C138.11 48.9874 141.064 48.9874 144.018 48.9874C144.131 48.9874 144.245 48.9874 144.33 48.9874C144.501 48.9874 144.586 48.9309 144.586 48.7614C144.614 47.7444 144.586 46.7273 144.302 45.7668ZM134.759 47.6314C134.958 46.0776 135.498 44.6933 136.804 43.761C138.565 42.4897 141.518 42.7157 142.654 45.5125C142.938 46.1906 143.052 46.8968 143.052 47.6596C140.269 47.6314 137.542 47.6314 134.759 47.6314Z" fill="white"/>
<path d="M113.231 45.3995C112.067 41.8964 108.659 41.1053 106.131 42.1224C104.314 42.8569 103.178 44.2694 102.581 46.1058C102.098 47.6313 102.07 49.2134 102.354 50.7955C102.609 52.2928 103.291 53.5641 104.455 54.5811C105.307 55.3156 106.33 55.7394 107.437 55.9654C107.523 56.0219 107.608 55.9937 107.693 55.9937C107.807 55.9937 107.92 55.9654 108.005 56.0502C108.318 56.0502 108.63 56.0502 108.914 56.0502C108.999 55.9654 109.113 56.0219 109.227 55.9937C109.312 55.9937 109.397 56.0219 109.482 55.9654C109.653 55.9372 109.823 55.9089 109.965 55.8524C111.385 55.5416 112.493 54.7789 113.345 53.5641C113.004 53.3098 112.692 53.0838 112.379 52.8295C112.322 52.886 112.266 52.9425 112.237 52.999C111.243 54.2138 109.937 54.7224 108.375 54.6941C107.011 54.6659 105.932 54.1291 105.08 53.112C104.171 52.0668 103.802 50.8237 103.774 49.4677C103.774 48.9874 103.745 48.9874 104.257 48.9874C107.21 48.9874 110.164 48.9874 113.117 48.9874C113.231 48.9874 113.345 48.9874 113.43 48.9874C113.6 48.9874 113.629 48.9309 113.657 48.7896C113.629 47.6313 113.6 46.5013 113.231 45.3995ZM111.868 47.6596C111.811 47.6596 111.754 47.6596 111.697 47.6596C109.198 47.6596 106.671 47.6596 104.171 47.6596C104.058 47.6596 103.916 47.6878 103.802 47.6313C103.944 46.4448 104.314 45.343 105.137 44.4107C106.529 42.8004 108.943 42.6309 110.419 43.7892C111.243 44.4107 111.698 45.2865 111.953 46.2753C112.038 46.6708 112.067 47.0663 112.123 47.4336C112.095 47.5748 112.067 47.6878 111.868 47.6596Z" fill="white"/>
<path d="M176.704 10.6789C176.136 10.6789 175.568 10.6789 175 10.6789C174.83 10.6789 174.745 10.7354 174.745 10.9049C174.716 11.3004 174.688 11.6676 174.659 12.0632C174.574 12.0914 174.546 12.0632 174.517 12.0349C173.665 11.0744 172.586 10.5941 171.308 10.4811C169.917 10.3398 168.667 10.6224 167.588 11.4981C166.679 12.2327 166.083 13.165 165.713 14.2385C165.316 15.3968 165.202 16.6116 165.231 17.8264C165.259 18.9282 165.401 20.03 165.799 21.0753C166.537 23.0246 168.156 24.9174 171.138 24.6914C172.302 24.6067 173.381 24.2394 174.233 23.4201C174.319 23.3354 174.375 23.2224 174.517 23.2506C174.517 23.8439 174.546 24.4089 174.489 25.0022C174.347 26.3582 173.495 27.4318 172.217 27.799C170.797 28.1663 169.434 27.9968 168.213 27.121C167.815 26.8385 167.503 26.4995 167.133 26.1322C166.764 26.556 166.395 26.9798 166.054 27.3753C165.941 27.4883 165.941 27.6013 166.026 27.7143C166.338 28.1381 166.707 28.4771 167.162 28.7596C169.121 30.0026 171.195 30.2569 173.381 29.5506C175.114 28.9856 176.221 27.7708 176.704 26.0192C176.875 25.3412 176.931 24.6632 176.931 23.9851C176.931 19.7475 176.931 15.4815 176.931 11.2439C176.931 11.1591 176.931 11.0744 176.931 10.9614C176.96 10.7354 176.875 10.6506 176.704 10.6789ZM174.347 21.047C173.24 22.8833 170.967 23.0246 169.689 22.3466C168.894 21.9228 168.411 21.2448 168.071 20.4537C167.588 19.2107 167.56 17.9394 167.673 16.6398C167.73 15.8771 167.9 15.1143 168.241 14.408C168.696 13.4475 169.405 12.7694 170.456 12.5434C171.99 12.2327 173.467 12.6564 174.404 14.182C174.517 14.3515 174.546 14.5493 174.546 14.747C174.546 15.7076 174.546 16.6681 174.546 17.6286C174.546 18.5609 174.546 19.4932 174.546 20.3972C174.546 20.595 174.489 20.821 174.347 21.047Z" fill="white"/>
<path d="M205.929 24.0982C205.929 24.0417 205.929 24.0135 205.929 23.957C205.929 17.77 205.929 11.583 205.929 5.42424C205.929 5.31123 205.929 5.19823 205.929 5.11348C205.929 4.97222 205.872 4.94397 205.73 4.94397C205.049 4.94397 204.396 4.94397 203.714 4.94397C203.572 4.94397 203.515 5.00047 203.515 5.14173C203.515 5.25473 203.515 5.36774 203.515 5.45249C203.515 7.48657 203.515 9.4924 203.515 11.5265C203.515 11.6677 203.515 11.809 203.515 11.922C203.43 11.9785 203.43 11.9785 203.402 11.9502C202.55 11.0745 201.499 10.6224 200.278 10.5094C199.085 10.3964 198.006 10.5942 196.983 11.244C195.762 12.035 195.024 13.2215 194.598 14.5776C194.086 16.2444 194.086 17.9395 194.37 19.6346C194.541 20.7081 194.938 21.6686 195.535 22.5727C197.58 25.652 201.754 25.1718 203.402 23.3072C203.458 23.2507 203.487 23.1942 203.6 23.1659C203.657 23.505 203.686 23.844 203.686 24.183C203.686 24.409 203.771 24.4937 203.998 24.4937C204.509 24.4655 205.049 24.4937 205.56 24.4937C205.929 24.4372 205.929 24.4655 205.929 24.0982ZM203.316 21.0754C202.266 22.7987 200.136 23.0247 198.772 22.3749C197.949 22.0076 197.438 21.3296 197.097 20.5103C196.87 20.0018 196.728 19.4368 196.671 18.9C196.529 17.4592 196.557 16.0184 197.097 14.6341C197.523 13.5888 198.233 12.7978 199.369 12.5153C200.874 12.1763 202.408 12.6 203.316 14.0126C203.43 14.2103 203.515 14.4081 203.515 14.6341C203.515 15.5946 203.515 16.5552 203.515 17.5157C203.515 18.448 203.515 19.4085 203.515 20.3408C203.544 20.6233 203.458 20.8493 203.316 21.0754Z" fill="white"/>
<path d="M191.53 24.0982C191.445 23.844 191.36 23.6179 191.303 23.3637C191.104 22.6009 191.104 21.8099 191.104 21.0188C191.104 19.013 191.104 17.0072 191.104 15.0014C191.104 12.7413 189.883 11.1875 187.696 10.6224C186.731 10.3682 185.737 10.3399 184.743 10.5094C183.664 10.7072 182.67 11.0745 181.818 11.809C180.994 12.5153 180.454 13.3628 180.398 14.4928C181.079 14.4928 181.761 14.4928 182.414 14.4928C182.755 14.4928 182.755 14.4928 182.84 14.1256C182.897 13.8148 183.067 13.5323 183.266 13.278C183.578 12.939 183.948 12.713 184.345 12.5435C185.14 12.261 185.964 12.2045 186.788 12.4305C187.867 12.713 188.463 13.391 188.634 14.4928C188.69 14.8601 188.662 15.2556 188.662 15.6229C188.662 16.0466 188.747 16.0749 188.236 16.0749C187.27 16.0749 186.305 16.0466 185.339 16.1031C184.26 16.1879 183.209 16.4139 182.244 16.9507C180.738 17.77 180.028 19.0695 180.085 20.7363C180.142 22.3466 180.937 23.5332 182.386 24.183C184.459 25.087 186.475 24.861 188.264 23.4202C188.406 23.3072 188.52 23.1942 188.69 23.0529C188.719 23.2507 188.776 23.4202 188.776 23.5614C188.804 23.7875 188.861 24.0417 188.946 24.2677C188.974 24.3807 189.031 24.4372 189.173 24.4372C189.94 24.4372 190.735 24.4372 191.502 24.4372C191.587 24.296 191.559 24.183 191.53 24.0982ZM188.719 19.239C188.719 19.578 188.69 19.9171 188.719 20.2278C188.747 20.5103 188.634 20.7646 188.492 20.9906C187.782 21.9511 186.816 22.4597 185.652 22.6009C185.084 22.6574 184.516 22.6574 183.976 22.4314C183.067 22.0641 182.584 21.4144 182.528 20.4538C182.471 19.4933 182.868 18.787 183.72 18.335C184.232 18.0525 184.8 17.9395 185.368 17.8547C186.39 17.7135 187.412 17.77 188.435 17.77C188.634 17.77 188.747 17.8265 188.719 18.0525C188.69 18.448 188.719 18.8435 188.719 19.239Z" fill="white"/>
<path d="M97.2989 24.2394C96.8729 23.1659 96.8161 22.0641 96.8161 20.934C96.8161 19.3802 96.8161 17.7982 96.8161 16.2444C96.8161 15.6793 96.8445 15.0861 96.7877 14.521C96.6457 12.6847 95.6801 11.4134 93.9193 10.7919C92.6413 10.3399 91.3065 10.3116 90.0001 10.6224C88.8357 10.9049 87.8133 11.4134 87.0465 12.3174C86.5069 12.939 86.1661 13.617 86.1661 14.4928C86.9329 14.4928 87.6145 14.4928 88.3245 14.4928C88.4949 14.4928 88.5517 14.4363 88.5801 14.2668C88.6653 13.6735 89.0061 13.2497 89.4889 12.9107C89.7445 12.7412 90.0001 12.6 90.3125 12.5152C91.0225 12.2892 91.7609 12.2609 92.4993 12.4305C93.6637 12.6847 94.4021 13.5605 94.4589 14.747C94.4873 15.0578 94.4589 15.3968 94.4589 15.7076C94.4589 16.1031 94.4589 16.1031 94.0613 16.1031C93.0957 16.1031 92.1301 16.0748 91.1645 16.1313C90.1421 16.1878 89.1481 16.4139 88.2109 16.8659C86.4217 17.7699 85.5697 19.4085 85.9673 21.4991C86.2229 22.9116 87.1317 23.8439 88.4381 24.3242C90.5113 25.087 92.4425 24.8044 94.1749 23.3354C94.2885 23.2506 94.3453 23.1094 94.4873 23.1094C94.5441 23.4484 94.6293 23.7591 94.6861 24.0982C94.7713 24.4654 94.7997 24.4654 95.1405 24.4654C95.7653 24.4654 96.3901 24.4654 97.0149 24.4654C97.1001 24.4654 97.2421 24.4937 97.2989 24.3807C97.2989 24.3242 97.2989 24.2677 97.2989 24.2394ZM94.1465 21.0753C93.2377 22.2901 91.4201 22.9399 89.9433 22.5161C88.3245 22.0641 88.0121 20.6233 88.3813 19.4932C88.5517 18.9847 88.9209 18.6457 89.3753 18.3914C89.8865 18.1089 90.4545 17.9677 91.0225 17.8829C92.0733 17.7134 93.1525 17.7982 94.2317 17.7699C94.4305 17.7699 94.4589 17.8547 94.4589 18.0242C94.4589 18.4197 94.4589 18.8435 94.4589 19.239C94.4589 19.5497 94.4305 19.8887 94.4589 20.1995C94.4589 20.5385 94.3453 20.7928 94.1465 21.0753Z" fill="white"/>
<path d="M261.338 18.2219C262.275 18.2219 263.212 18.2219 264.15 18.2219C266.109 18.2219 268.069 18.2219 270.029 18.2219C270.398 18.2219 270.398 18.2501 270.398 17.8546C270.398 17.0071 270.398 16.1878 270.256 15.3685C270.057 14.2102 269.716 13.1084 268.921 12.2326C267.359 10.4528 265.371 10.0856 263.184 10.6506C261.196 11.1591 259.89 12.5434 259.18 14.408C258.441 16.3291 258.413 18.3066 258.952 20.2842C259.464 22.2053 260.685 23.5896 262.559 24.2959C264.207 24.9174 265.91 24.8891 267.558 24.2676C268.58 23.8721 269.404 23.1941 270.029 22.3183C270.227 22.064 270.227 22.064 269.972 21.8663C269.574 21.5555 269.205 21.273 268.779 20.934C268.665 21.047 268.58 21.1317 268.495 21.2165C267.728 22.0923 266.762 22.6573 265.57 22.7421C264.235 22.8551 263.07 22.4878 262.162 21.4708C261.423 20.6515 261.111 19.6344 261.026 18.5609C260.969 18.2501 260.969 18.2219 261.338 18.2219ZM261.963 13.7582C262.9 12.4587 264.377 12.0631 265.854 12.5434C266.677 12.8259 267.189 13.4192 267.558 14.1537C267.842 14.747 267.955 15.3968 267.984 16.0465C268.012 16.2161 267.927 16.3008 267.757 16.2726C267.671 16.2726 267.615 16.2726 267.529 16.2726C265.541 16.2726 263.525 16.2726 261.537 16.2726C261.395 16.2726 261.224 16.3008 261.082 16.2443C261.196 15.3685 261.423 14.521 261.963 13.7582Z" fill="white"/>
<path d="M229.217 15.0579C228.989 13.9278 228.563 12.8543 227.74 12.035C226.32 10.5659 224.502 10.1704 222.571 10.5659C220.526 10.9614 219.106 12.261 218.311 14.1256C217.402 16.2444 217.374 18.448 218.055 20.6233C218.652 22.4879 219.93 23.7592 221.804 24.3807C222.912 24.748 224.076 24.7762 225.241 24.6067C226.945 24.3525 228.251 23.5049 229.217 22.0359C228.819 21.7251 228.45 21.4426 228.109 21.1601C227.797 20.9058 227.797 20.9058 227.513 21.1884C226.746 22.0359 225.837 22.6009 224.644 22.7139C223.679 22.7987 222.798 22.6574 221.975 22.1206C220.697 21.3014 220.185 20.0583 220.043 18.6175C219.987 18.1655 220.015 18.1655 220.469 18.1655C223.281 18.1655 226.064 18.1655 228.876 18.1655C228.989 18.1655 229.103 18.1655 229.188 18.1655C229.359 18.1937 229.415 18.109 229.415 17.9395C229.415 17.0072 229.415 16.0184 229.217 15.0579ZM226.803 16.3009C224.587 16.3009 222.372 16.3009 220.1 16.3009C220.271 14.9731 220.697 13.8431 221.747 12.9955C222.997 12.0067 225.667 11.9502 226.632 14.2386C226.888 14.8036 227.001 15.4251 227.03 16.0466C227.03 16.1879 227.03 16.3009 226.803 16.3009Z" fill="white"/>
<path d="M133.311 14.521C132.97 13.2779 132.402 12.2044 131.323 11.4416C129.818 10.3681 128.142 10.1421 126.41 10.6223C124.336 11.1874 123.03 12.6282 122.32 14.6058C121.667 16.4703 121.638 18.3914 122.15 20.3125C122.604 22.0358 123.683 23.3636 125.33 24.0981C127.148 24.9174 128.994 24.9174 130.84 24.2111C131.862 23.8156 132.629 23.1376 133.282 22.2618C133.396 22.0923 133.424 22.0075 133.254 21.8663C132.828 21.5555 132.43 21.2448 132.004 20.9058C130.528 22.6573 128.738 23.2506 126.608 22.3748C125.217 21.7815 124.251 20.1995 124.28 18.2501C124.45 18.1654 124.62 18.2219 124.762 18.2219C127.489 18.2219 130.215 18.2219 132.942 18.2219C133.084 18.2219 133.254 18.2219 133.396 18.2219C133.566 18.2219 133.652 18.1936 133.652 17.9959C133.623 16.8376 133.623 15.6793 133.311 14.521ZM130.925 16.3008C130.641 16.3008 130.357 16.3008 130.045 16.3008C128.256 16.3008 126.466 16.3008 124.677 16.3008C124.564 16.3008 124.478 16.3008 124.308 16.3008C124.478 15.1708 124.791 14.2102 125.529 13.3627C126.864 11.8654 130.016 11.8654 130.925 14.4927C131.096 14.973 131.181 15.4533 131.209 15.9618C131.238 16.3008 131.238 16.3008 130.925 16.3008Z" fill="white"/>
<path d="M44.5872 11.583H6.53125V19.4933H44.5872V11.583Z" fill="#FCFBFA"/>
</g>
<defs>
<clipPath id="clip0_517_515">
<rect width="284" height="63" fill="white"/>
</clipPath>
</defs>
</svg>
