<svg width="234" height="51" viewBox="0 0 234 51" fill="none" xmlns="http://www.w3.org/2000/svg">
<g clip-path="url(#clip0_454_1052)">
<path d="M36.1065 11.5111H1.37695V4.66615C1.37695 4.33836 1.65181 4.06842 1.98555 4.06842H35.5175C35.8513 4.06842 36.1261 4.33836 36.1261 4.66615V11.5111H36.1065Z" fill="#464655"/>
<path d="M35.5176 26.4159H1.96602C1.63227 26.4159 1.35742 26.1459 1.35742 25.8181V18.9731H36.087V25.8374C36.1066 26.1652 35.8318 26.4159 35.5176 26.4159Z" fill="#000"/>
<path d="M36.1065 11.5111H1.37695V18.9539H36.1065V11.5111Z" fill="#000"/>
<path d="M64.6905 9.93005V21.2677H61.883V14.4612L59.2916 21.2677H57.0142L54.4228 14.442V21.2677H51.5957V9.93005H54.9332L58.1725 17.7777L61.3726 9.93005H64.6905Z" fill="#333"/>
<path d="M73.8983 19.2624H69.5792L68.8921 21.2677H65.9473L70.1289 9.93005H73.3879L77.5696 21.2677H74.5855L73.8983 19.2624ZM73.172 17.1221L71.7388 12.9766L70.3253 17.1221H73.172Z" fill="#333"/>
<path d="M84.7159 21.2677L82.3207 16.9871H81.6336V21.2677H78.8262V9.93005H83.5379C84.441 9.93005 85.2263 10.0843 85.8742 10.3928C86.522 10.7013 86.9932 11.1255 87.3073 11.6847C87.6215 12.2246 87.7785 12.8416 87.7785 13.4972C87.7785 14.2491 87.5626 14.924 87.1306 15.5217C86.6987 16.1195 86.0509 16.5437 85.2067 16.775L87.8767 21.2677H84.7159ZM81.6336 15.0204H83.3809C83.8913 15.0204 84.284 14.9047 84.5392 14.6541C84.7944 14.4034 84.9318 14.0563 84.9318 13.6129C84.9318 13.1887 84.7944 12.8416 84.5392 12.5909C84.284 12.3403 83.8913 12.2246 83.3809 12.2246H81.6336V15.0204Z" fill="#333"/>
<path d="M96.2395 21.2677L92.3523 16.2544V21.2677H89.5449V9.93005H92.3523V14.9047L96.2003 9.93005H99.4985L95.0223 15.4832L99.6556 21.2677H96.2395Z" fill="#333"/>
<path d="M103.817 12.1282V14.4227H107.587V16.5629H103.817V19.0503H108.077V21.2677H101.01V9.93005H108.077V12.1474H103.817V12.1282Z" fill="#333"/>
<path d="M118.208 9.93005V12.1474H115.145V21.2677H112.338V12.1282H109.275V9.93005H118.208Z" fill="black"/>
<path d="M122.448 9.93005V21.2677H119.641V9.93005H122.448Z" fill="#333"/>
<path d="M134.817 21.2677H132.009L127.298 14.2684V21.2677H124.49V9.93005H127.298L132.009 16.9486V9.93005H134.817V21.2677Z" fill="#333"/>
<path d="M144.516 13.5164C144.3 13.1308 144.006 12.8609 143.613 12.6488C143.221 12.4559 142.769 12.3595 142.239 12.3595C141.336 12.3595 140.59 12.6488 140.06 13.2465C139.51 13.8249 139.235 14.6155 139.235 15.5989C139.235 16.6401 139.53 17.4499 140.099 18.0476C140.668 18.6261 141.473 18.9346 142.475 18.9346C143.162 18.9346 143.751 18.7611 144.222 18.414C144.693 18.0669 145.046 17.5656 145.262 16.9293H141.709V14.8662H147.834V17.4306C147.618 18.1248 147.265 18.7611 146.774 19.3588C146.283 19.9565 145.635 20.4386 144.87 20.8049C144.104 21.1713 143.24 21.3448 142.278 21.3448C141.14 21.3448 140.119 21.0941 139.235 20.6121C138.332 20.1301 137.645 19.4359 137.154 18.5682C136.663 17.7006 136.408 16.6979 136.408 15.5796C136.408 14.4612 136.663 13.4586 137.154 12.5909C137.645 11.704 138.352 11.0291 139.235 10.5471C140.119 10.065 141.14 9.81436 142.278 9.81436C143.653 9.81436 144.83 10.1421 145.773 10.7977C146.715 11.4533 147.343 12.3595 147.658 13.5357L144.516 13.5164Z" fill="#333"/>
<path d="M156.57 19.2624H152.251L151.564 21.2677H148.619L152.801 9.93005H156.06L160.241 21.2677H157.257L156.57 19.2624ZM155.844 17.1221L154.411 12.9766L152.997 17.1221H155.844Z" fill="#333"/>
<path d="M169.017 10.6435C169.92 11.1255 170.627 11.7811 171.137 12.6295C171.628 13.4779 171.883 14.4805 171.883 15.5989C171.883 16.7172 171.628 17.7006 171.137 18.549C170.647 19.4166 169.94 20.0722 169.017 20.5543C168.094 21.0363 167.034 21.2677 165.837 21.2677H161.518V9.93005H165.837C167.054 9.93005 168.114 10.1614 169.017 10.6435ZM168.134 18.0091C168.723 17.4306 169.017 16.6401 169.017 15.5796C169.017 14.5384 168.723 13.7285 168.134 13.1501C167.545 12.5716 166.72 12.2824 165.64 12.2824H164.305V18.8767H165.64C166.72 18.8767 167.545 18.5875 168.134 18.0091Z" fill="#333"/>
<path d="M179.362 21.2677L176.967 16.9871H176.3V21.2677H173.492V9.93005H178.204C179.107 9.93005 179.892 10.0843 180.54 10.3928C181.188 10.7013 181.659 11.1255 181.973 11.6847C182.287 12.2246 182.445 12.8416 182.445 13.4972C182.445 14.2491 182.229 14.924 181.797 15.5217C181.365 16.1195 180.717 16.5437 179.873 16.775L182.543 21.2677H179.362ZM176.28 15.0204H178.027C178.538 15.0204 178.93 14.9047 179.186 14.6541C179.441 14.4034 179.578 14.0563 179.578 13.6129C179.578 13.1887 179.441 12.8416 179.186 12.5909C178.93 12.3403 178.538 12.2246 178.027 12.2246H176.28V15.0204Z" fill="#333"/>
<path d="M186.999 12.1282V14.4227H190.768V16.5629H186.999V19.0503H191.259V21.2677H184.191V9.93005H191.259V12.1474H186.999V12.1282Z" fill="#333"/>
<path d="M194.99 20.9785C194.323 20.7085 193.792 20.3036 193.38 19.783C192.988 19.2624 192.772 18.6261 192.752 17.8741H195.736C195.775 18.2983 195.932 18.6068 196.188 18.8382C196.443 19.0503 196.777 19.166 197.169 19.166C197.582 19.166 197.915 19.0696 198.151 18.8768C198.386 18.6839 198.504 18.4333 198.504 18.0862C198.504 17.797 198.406 17.5656 198.21 17.3921C198.013 17.2185 197.778 17.0643 197.503 16.9486C197.228 16.8329 196.835 16.6979 196.305 16.5437C195.559 16.3123 194.951 16.1002 194.48 15.8688C194.008 15.6374 193.596 15.3096 193.262 14.8662C192.929 14.4227 192.752 13.8442 192.752 13.1308C192.752 12.0703 193.145 11.2412 193.91 10.6435C194.696 10.0458 195.697 9.75653 196.953 9.75653C198.229 9.75653 199.25 10.0458 200.036 10.6435C200.821 11.2412 201.233 12.0703 201.292 13.1308H198.249C198.229 12.7645 198.092 12.4752 197.837 12.2631C197.582 12.051 197.267 11.9546 196.875 11.9546C196.541 11.9546 196.266 12.051 196.05 12.2246C195.834 12.3981 195.736 12.6488 195.736 12.9959C195.736 13.3622 195.913 13.6514 196.266 13.8442C196.62 14.0563 197.169 14.2684 197.915 14.4998C198.661 14.7505 199.27 14.9819 199.741 15.2132C200.212 15.4446 200.605 15.7724 200.958 16.1966C201.292 16.6208 201.469 17.18 201.469 17.8548C201.469 18.5104 201.292 19.0889 200.958 19.6095C200.625 20.1301 200.134 20.5543 199.505 20.8628C198.877 21.1713 198.112 21.3255 197.248 21.3255C196.423 21.3834 195.658 21.2484 194.99 20.9785Z" fill="#333"/>
<path d="M205.101 20.9785C204.434 20.7085 203.904 20.3036 203.492 19.783C203.099 19.2624 202.883 18.6261 202.863 17.8741H205.847C205.887 18.2983 206.044 18.6068 206.299 18.8382C206.554 19.0503 206.888 19.166 207.281 19.166C207.693 19.166 208.027 19.0696 208.262 18.8768C208.498 18.6839 208.616 18.4333 208.616 18.0862C208.616 17.797 208.517 17.5656 208.321 17.3921C208.125 17.2185 207.889 17.0643 207.614 16.9486C207.339 16.8329 206.947 16.6979 206.417 16.5437C205.671 16.3123 205.062 16.1002 204.591 15.8688C204.12 15.6374 203.707 15.3096 203.374 14.8662C203.04 14.4227 202.863 13.8442 202.863 13.1308C202.863 12.0703 203.256 11.2412 204.022 10.6435C204.807 10.0458 205.808 9.75653 207.065 9.75653C208.341 9.75653 209.362 10.0458 210.147 10.6435C210.932 11.2412 211.344 12.0703 211.403 13.1308H208.36C208.341 12.7645 208.203 12.4752 207.948 12.2631C207.693 12.051 207.379 11.9546 206.986 11.9546C206.652 11.9546 206.377 12.051 206.162 12.2246C205.946 12.3981 205.847 12.6488 205.847 12.9959C205.847 13.3622 206.024 13.6514 206.377 13.8442C206.731 14.0563 207.281 14.2684 208.027 14.4998C208.773 14.7505 209.381 14.9819 209.852 15.2132C210.324 15.4446 210.716 15.7724 211.07 16.1966C211.403 16.6208 211.58 17.18 211.58 17.8548C211.58 18.5104 211.403 19.0889 211.07 19.6095C210.736 20.1301 210.245 20.5543 209.617 20.8628C208.989 21.1713 208.223 21.3255 207.359 21.3255C206.535 21.3834 205.789 21.2484 205.101 20.9785Z" fill="#333"/>
<path d="M216.134 12.1282V14.4227H219.903V16.5629H216.134V19.0503H220.394V21.2677H213.326V9.93005H220.394V12.1474H216.134V12.1282Z" fill="#333"/>
<path d="M232.547 21.2677H229.74L225.028 14.2684V21.2677H222.221V9.93005H225.028L229.74 16.9486V9.93005H232.547V21.2677Z" fill="#333"/>
<path d="M-0.154297 3.00793H37.6379V11.0291H-0.154297V3.00793Z" fill="#DF0000"/>
<path d="M-0.154297 19.031H37.6379V27.0522H-0.154297V19.031Z" fill="#DF0000"/>
<path d="M-0.154297 11.0291H37.6379V19.0503H-0.154297V11.0291Z" fill="#fff"/>
<path d="M55.2471 41.7255C54.3636 41.2242 53.6765 40.5301 53.166 39.6431C52.6556 38.7561 52.4004 37.7342 52.4004 36.6159C52.4004 35.4783 52.6556 34.4756 53.166 33.5887C53.6765 32.7017 54.3636 32.0076 55.2471 31.5062C56.1305 31.0049 57.1121 30.7543 58.1919 30.7543C59.2913 30.7543 60.2729 31.0049 61.1564 31.5062C62.0399 32.0076 62.727 32.7017 63.2374 33.5887C63.7479 34.4756 63.9834 35.4975 63.9834 36.6159C63.9834 37.7535 63.7282 38.7561 63.2374 39.6431C62.727 40.5301 62.0399 41.2242 61.1564 41.7255C60.2729 42.2268 59.2913 42.4775 58.1919 42.4775C57.1121 42.4775 56.1305 42.2268 55.2471 41.7255ZM60.5478 40.8771C61.2349 40.4915 61.7846 39.913 62.1969 39.1803C62.5896 38.4476 62.8055 37.58 62.8055 36.6159C62.8055 35.6325 62.6092 34.7841 62.1969 34.0514C61.8043 33.3187 61.2546 32.7595 60.5478 32.3546C59.8607 31.969 59.0754 31.7569 58.2116 31.7569C57.3477 31.7569 56.5624 31.9497 55.8753 32.3546C55.1882 32.7403 54.6385 33.3187 54.2262 34.0514C53.8335 34.7841 53.6176 35.6325 53.6176 36.6159C53.6176 37.5992 53.8139 38.4476 54.2262 39.1803C54.6188 39.913 55.1685 40.4915 55.8753 40.8771C56.5624 41.2628 57.3477 41.4749 58.2116 41.4749C59.0754 41.4749 59.8607 41.2628 60.5478 40.8771ZM56.4643 29.5202C56.3072 29.366 56.2287 29.1924 56.2287 28.9803C56.2287 28.7682 56.3072 28.5947 56.4643 28.4405C56.6213 28.2862 56.798 28.2091 57.014 28.2091C57.2299 28.2091 57.4066 28.2862 57.5637 28.4405C57.7207 28.5947 57.7993 28.7682 57.7993 28.9803C57.7993 29.1924 57.7207 29.366 57.5637 29.5202C57.4066 29.6745 57.2299 29.7516 57.014 29.7516C56.798 29.7516 56.6213 29.6745 56.4643 29.5202ZM59.0557 29.5202C58.8987 29.366 58.8201 29.1924 58.8201 28.9803C58.8201 28.7682 58.8987 28.5947 59.0557 28.4405C59.2128 28.2862 59.3895 28.2091 59.6054 28.2091C59.8214 28.2091 59.9981 28.2862 60.1355 28.4405C60.2729 28.5947 60.3515 28.7682 60.3515 28.9803C60.3515 29.1924 60.2729 29.366 60.1355 29.5202C59.9981 29.6745 59.8214 29.7516 59.6054 29.7516C59.3699 29.7516 59.1932 29.6745 59.0557 29.5202Z" fill="#333"/>
<path d="M66.7128 41.7641C66.0453 41.282 65.6723 40.6457 65.5938 39.8166H66.7913C66.8502 40.318 67.0858 40.7229 67.5177 41.0507C67.9496 41.3592 68.519 41.5134 69.2454 41.5134C69.8736 41.5134 70.384 41.3592 70.7374 41.0699C71.0908 40.7807 71.2871 40.4144 71.2871 39.9709C71.2871 39.6624 71.189 39.4117 70.9926 39.2189C70.7963 39.0261 70.5411 38.8718 70.227 38.7561C69.9129 38.6404 69.5006 38.5248 68.9705 38.3898C68.2834 38.2163 67.7337 38.0427 67.3214 37.8692C66.8895 37.6956 66.5361 37.4257 66.2416 37.0786C65.9471 36.7316 65.7901 36.2688 65.7901 35.6904C65.7901 35.2469 65.9275 34.842 66.1827 34.4756C66.4576 34.1093 66.8306 33.8008 67.3214 33.5887C67.8122 33.3766 68.3619 33.2609 68.9901 33.2609C69.9718 33.2609 70.757 33.5115 71.3656 33.9936C71.9743 34.4756 72.2884 35.1505 72.3276 35.9989H71.1497C71.1104 35.4783 70.9141 35.0541 70.5215 34.7263C70.1288 34.3985 69.6184 34.2442 68.9312 34.2442C68.3423 34.2442 67.8515 34.3792 67.4981 34.6491C67.1251 34.9191 66.9484 35.2662 66.9484 35.6711C66.9484 36.0181 67.0662 36.3074 67.2821 36.5387C67.4981 36.7701 67.7729 36.9437 68.0871 37.0594C68.4012 37.1943 68.8527 37.3293 69.4024 37.4835C70.0699 37.6571 70.5804 37.8306 70.973 37.9849C71.3656 38.1584 71.6994 38.3898 71.9742 38.7176C72.2491 39.0261 72.4062 39.4503 72.4062 39.9902C72.4062 40.4722 72.2687 40.8964 72.0135 41.282C71.7387 41.6677 71.3656 41.9569 70.8945 42.169C70.4233 42.3811 69.854 42.4968 69.2454 42.4968C68.2441 42.4968 67.3803 42.2461 66.7128 41.7641Z" fill="#333"/>
<path d="M76.1944 34.3406V39.913C76.1944 40.4529 76.2925 40.8386 76.5085 41.0507C76.7244 41.2628 77.0975 41.3592 77.6275 41.3592H78.7073V42.3425H77.4508C76.6263 42.3425 76.0177 42.1497 75.6054 41.7834C75.2128 41.3977 74.9968 40.7807 74.9968 39.913V34.3406H73.7207V33.3766H74.9968V31.1206H76.1944V33.3766H78.7073V34.3406H76.1944Z" fill="#333"/>
<path d="M88.877 38.3127H81.2989C81.3382 38.9875 81.4953 39.566 81.8094 40.048C82.1235 40.5301 82.5161 40.8964 83.0069 41.1471C83.4978 41.3977 84.0278 41.5134 84.6168 41.5134C85.3825 41.5134 86.0107 41.3399 86.5408 40.9735C87.0708 40.6072 87.4046 40.1252 87.5616 39.5081H88.7985C88.5825 40.3758 88.0917 41.1085 87.3653 41.6484C86.6389 42.2076 85.7162 42.4775 84.6168 42.4775C83.753 42.4775 82.9873 42.2847 82.3002 41.9183C81.613 41.5327 81.083 41.0121 80.71 40.2987C80.3173 39.6045 80.1406 38.7947 80.1406 37.8499C80.1406 36.9244 80.3369 36.0953 80.71 35.4011C81.083 34.707 81.613 34.1671 82.3002 33.7815C82.9873 33.4151 83.753 33.2223 84.6364 33.2223C85.5002 33.2223 86.2659 33.4151 86.9138 33.7815C87.5616 34.1478 88.0721 34.6492 88.4255 35.2855C88.7788 35.9218 88.9555 36.6159 88.9555 37.3872C88.8966 37.7921 88.8966 38.1006 88.877 38.3127ZM87.3064 35.6711C87.0316 35.2083 86.6389 34.842 86.1481 34.6106C85.6573 34.3599 85.1272 34.2442 84.5383 34.2442C83.6744 34.2442 82.9284 34.5142 82.3198 35.0734C81.7112 35.6132 81.3578 36.4038 81.2989 37.3872H87.7187C87.7187 36.7123 87.6009 36.1339 87.3064 35.6711Z" fill="#333"/>
<path d="M93.393 33.6658C93.9231 33.3573 94.5709 33.203 95.3366 33.203V34.3985H95.0225C94.1783 34.3985 93.4911 34.6299 92.9807 35.0734C92.4703 35.5168 92.215 36.2688 92.215 37.3293V42.3425H91.0371V33.3573H92.215V34.9577C92.4703 34.4178 92.8629 33.9743 93.393 33.6658Z" fill="#333"/>
<path d="M99.4594 33.6658C99.9895 33.3573 100.637 33.203 101.403 33.203V34.3985H101.089C100.245 34.3985 99.5576 34.6299 99.0471 35.0734C98.5367 35.5168 98.2815 36.2688 98.2815 37.3293V42.3425H97.1035V33.3573H98.2815V34.9577C98.5367 34.4178 98.9293 33.9743 99.4594 33.6658Z" fill="#333"/>
<path d="M111.414 38.3127H103.817C103.856 38.9875 104.013 39.566 104.327 40.048C104.641 40.5301 105.034 40.8964 105.525 41.1471C106.015 41.3977 106.545 41.5134 107.134 41.5134C107.9 41.5134 108.528 41.3399 109.058 40.9735C109.588 40.6072 109.922 40.1252 110.079 39.5081H111.316C111.1 40.3758 110.609 41.1085 109.883 41.6484C109.157 42.2076 108.234 42.4775 107.134 42.4775C106.271 42.4775 105.505 42.2847 104.818 41.9183C104.131 41.5327 103.601 41.0121 103.228 40.2987C102.835 39.6045 102.658 38.7947 102.658 37.8499C102.658 36.9244 102.855 36.0953 103.228 35.4011C103.601 34.707 104.131 34.1671 104.818 33.7815C105.505 33.4151 106.271 33.2223 107.154 33.2223C108.018 33.2223 108.783 33.4151 109.431 33.7815C110.079 34.1478 110.59 34.6492 110.943 35.2855C111.296 35.9218 111.473 36.6159 111.473 37.3872C111.434 37.7921 111.434 38.1006 111.414 38.3127ZM109.844 35.6711C109.569 35.2083 109.176 34.842 108.685 34.6106C108.195 34.3599 107.664 34.2442 107.075 34.2442C106.212 34.2442 105.466 34.5142 104.857 35.0734C104.248 35.6132 103.895 36.4038 103.836 37.3872H110.256C110.256 36.7123 110.118 36.1339 109.844 35.6711Z" fill="#333"/>
<path d="M113.576 31.4291C113.399 31.2556 113.32 31.0628 113.32 30.8121C113.32 30.5614 113.399 30.3686 113.576 30.2144C113.752 30.0601 113.949 29.983 114.184 29.983C114.42 29.983 114.616 30.0601 114.793 30.2144C114.969 30.3686 115.048 30.5807 115.048 30.8121C115.048 31.0628 114.969 31.2556 114.793 31.4291C114.616 31.6027 114.42 31.6798 114.184 31.6798C113.949 31.6798 113.733 31.6027 113.576 31.4291ZM114.753 33.3766V42.3618H113.576V33.3766H114.753Z" fill="#333"/>
<path d="M117.442 35.4204C117.815 34.7263 118.345 34.1864 119.013 33.8007C119.68 33.4151 120.446 33.2416 121.31 33.2416C122.429 33.2416 123.371 33.5115 124.098 34.0707C124.824 34.6106 125.295 35.3626 125.511 36.3074H124.255C124.098 35.6518 123.764 35.1505 123.234 34.7841C122.723 34.4178 122.076 34.2249 121.29 34.2249C120.682 34.2249 120.132 34.3599 119.641 34.6299C119.15 34.8998 118.758 35.3047 118.483 35.8639C118.208 36.4038 118.051 37.0786 118.051 37.8692C118.051 38.6597 118.188 39.3346 118.483 39.8745C118.777 40.4144 119.15 40.8386 119.641 41.1085C120.132 41.3784 120.682 41.5134 121.29 41.5134C122.056 41.5134 122.704 41.3206 123.234 40.9542C123.744 40.5879 124.098 40.0673 124.255 39.4117H125.511C125.295 40.3372 124.824 41.0699 124.098 41.6291C123.352 42.1883 122.429 42.4582 121.31 42.4582C120.446 42.4582 119.68 42.2654 119.013 41.899C118.345 41.5134 117.815 40.9928 117.442 40.2794C117.069 39.5852 116.873 38.7754 116.873 37.8306C116.873 36.9437 117.069 36.1145 117.442 35.4204Z" fill="#333"/>
<path d="M133.893 33.6465C134.443 33.9357 134.875 34.3599 135.209 34.9577C135.523 35.5361 135.68 36.2688 135.68 37.0979V42.3618H134.522V37.2329C134.522 36.2495 134.266 35.5168 133.776 34.9962C133.285 34.4756 132.598 34.225 131.734 34.225C130.85 34.225 130.144 34.4949 129.633 35.0541C129.103 35.594 128.848 36.4038 128.848 37.4643V42.3618H127.67V30.1951H128.848V34.9191C129.142 34.3792 129.574 33.9743 130.124 33.6658C130.693 33.3766 131.322 33.2223 132.028 33.2223C132.715 33.2223 133.344 33.3573 133.893 33.6465Z" fill="white"/>
</g>
<defs>
<clipPath id="clip0_454_1052">
<rect width="234" height="51" fill="white"/>
</clipPath>
</defs>
</svg>
